<svg width="111" height="111" viewBox="0 0 111 111" fill="none" xmlns="http://www.w3.org/2000/svg">
<path d="M99.8956 0H9.98956C4.47808 0 -1.40164e-05 4.47808 -1.40164e-05 9.98956V100.01C-1.40164e-05 105.522 4.47808 110 9.98956 110H100.01C105.522 110 110 105.522 110 100.01V9.98956C110 4.47808 105.522 0 99.8956 0Z" transform="translate(0.300049 0.5)" fill="#F54782"/>
<path d="M47.1921 39.7286C42.8288 39.7286 38.9249 42.0251 36.7432 45.4697L23.4238 37.8914C24.2276 36.1691 24.8017 34.3319 24.8017 32.2651C24.8017 31.0021 24.572 29.8539 24.2275 28.7056L38.1211 20.7829C40.4175 23.1942 43.6326 24.8017 47.1921 24.8017C54.0814 24.8017 59.5929 19.2902 59.5929 12.4008C59.5929 5.51148 54.0814 -8.76026e-07 47.1921 -8.76026e-07C40.3027 -8.76026e-07 34.7912 5.51148 34.7912 12.4008C34.7912 13.6639 35.0209 14.8121 35.3653 15.9603L21.4718 23.8831C19.1754 21.4718 15.9603 19.8643 12.4008 19.8643C5.51148 19.8643 1.40164e-05 25.3758 1.40164e-05 32.2651C1.40164e-05 39.1545 5.51148 44.666 12.4008 44.666C15.2714 44.666 17.7975 43.6326 19.8643 42.1399L34.9061 50.8664C34.9061 51.3257 34.7912 51.785 34.7912 52.2443C34.7912 59.1336 40.3027 64.6451 47.1921 64.6451C54.0814 64.6451 59.5929 59.1336 59.5929 52.2443C59.5929 45.3549 54.0814 39.7286 47.1921 39.7286Z" transform="translate(22.0016 24.3832)" fill="white"/>
</svg>
