<svg width="111" height="110" viewBox="0 0 111 110" fill="none" xmlns="http://www.w3.org/2000/svg">
<path d="M100.01 0H9.98956C4.47808 0 -1.75205e-06 4.47808 -1.75205e-06 9.98956V100.01C-1.75205e-06 105.522 4.47808 110 9.98956 110H100.01C105.522 110 110 105.522 110 100.01V9.98956C110 4.47808 105.522 0 100.01 0Z" transform="translate(0.0999756)" fill="#F54782"/>
<path d="M5.16701 15.6914H10.334L18.9457 26.3699L25.7203 17.9878L15.6159 5.35736H5.16701C2.29644 5.35736 -7.00821e-06 7.65381 -7.00821e-06 10.5244C-7.00821e-06 13.3949 2.29644 15.6914 5.16701 15.6914ZM54.6555 15.6914V20.0546C55.4593 20.8584 57.8706 21.088 58.6743 20.3991L69.6973 12.0171C70.501 11.2133 70.501 9.95026 69.6973 9.26132L58.6743 0.879278C57.8706 0.0755205 55.4593 -0.383769 54.6555 0.419989V5.24253H41.6806L10.4489 44.2822H5.28184C2.41127 44.2822 0.114823 46.5787 0.114823 49.4492C0.114823 52.3198 2.41127 54.6162 5.28184 54.6162H15.7307L46.9624 15.5766H54.6555V15.6914ZM58.6743 39.5745C57.8706 38.7707 55.4593 39.0004 54.6555 39.8041V44.397H46.8476L38.2359 33.7185L31.4614 42.1006L41.5658 54.7311H54.6555V59.324C55.4593 60.1277 57.8706 59.7832 58.6743 58.9795L69.6973 50.5974C70.501 49.7937 70.501 48.5306 69.6973 47.8417L58.6743 39.5745Z" transform="translate(19.9644 25.0706)" fill="white"/>
</svg>
