<svg width="186" height="40" viewBox="0 0 186 40" version="1.1" xmlns="http://www.w3.org/2000/svg" xmlns:xlink="http://www.w3.org/1999/xlink">
<g id="logo">
<g id="Group">
<g id="Group_2">
<g id="Vector">
<path d="M 16.685 9.47676L 16.685 15.9788C 16.685 16.9562 16.0861 17.8486 15.1876 18.1886C 14.6315 18.4011 14.0325 18.571 13.4336 18.6985C 12.8346 18.826 12.1929 18.9535 11.5512 19.0385C 10.9094 19.1235 10.3105 19.1235 9.7971 19.1235C 8.25694 19.1235 6.84513 18.8685 5.64723 18.3586C 4.44934 17.8486 3.42257 17.1687 2.56693 16.2762C 1.71128 15.3838 1.06955 14.4064 0.641732 13.2165C 0.213911 12.0691 6.52803e-07 10.8367 6.52803e-07 9.56175C 6.52803e-07 8.20186 0.256692 6.92696 0.727295 5.77955C 1.1979 4.63214 1.83963 3.61222 2.69527 2.76228C 3.55091 1.91235 4.5349 1.2324 5.7328 0.722444C 6.88792 0.212483 8.21416 -3.24224e-07 9.58319 -3.24224e-07C 11.2945 -3.24224e-07 12.6635 0.212483 13.733 0.63745C 14.2892 0.849933 14.8026 1.14741 15.2732 1.44489C 15.9149 1.86985 16.0005 2.80478 15.4871 3.35724C 15.0593 3.8247 14.332 3.90969 13.8186 3.52722C 13.3052 3.18725 12.7918 2.88977 12.2357 2.71979C 11.38 2.42231 10.4816 2.29482 9.58319 2.29482C 8.51363 2.29482 7.57243 2.5073 6.71678 2.88977C 5.86114 3.27224 5.13385 3.7822 4.5349 4.46215C 3.93595 5.0996 3.46535 5.86454 3.12309 6.75697C 2.78083 7.6494 2.60971 8.58433 2.60971 9.56175C 2.60971 10.5817 2.78084 11.5591 3.16587 12.409C 3.50813 13.3015 4.02152 14.0664 4.66325 14.7039C 5.30498 15.3413 6.03227 15.8513 6.9307 16.2337C 7.78634 16.6162 8.72754 16.7862 9.75431 16.7862C 10.6527 16.7862 11.4656 16.7012 12.2357 16.5312C 13.0058 16.3612 13.6903 16.1487 14.2464 15.8088L 14.2464 10.7942L 11.3373 10.7942C 10.6955 10.7942 10.1821 10.2842 10.1821 9.64675C 10.1821 9.0093 10.6955 8.49934 11.3373 8.49934L 15.7438 8.49934C 16.2572 8.45684 16.685 8.9243 16.685 9.47676Z" transform="translate(54 10.1275)" fill="#28041A"/>
</g>
<g id="Vector_2">
<path d="M -1.30561e-06 1.01992C -1.30561e-06 0.467463 0.470605 -1.62112e-07 1.02677 -1.62112e-07L 6.4601 -1.62112e-07C 7.61521 -1.62112e-07 8.5992 0.169987 9.36928 0.467463C 10.1394 0.76494 10.7383 1.18991 11.1661 1.65737C 11.5939 2.16733 11.8934 2.67729 12.0645 3.31474C 12.2357 3.90969 12.3212 4.50465 12.3212 5.0571C 12.3212 5.65206 12.2357 6.20451 12.0218 6.75697C 11.8079 7.30943 11.5084 7.77689 11.1233 8.24436C 10.7383 8.66932 10.2677 9.05179 9.71153 9.34927C 9.15536 9.64675 8.51363 9.81673 7.82912 9.90173L 11.8506 16.3187C 12.364 17.1262 11.7651 18.1886 10.7811 18.1886L 10.61 18.1886C 10.1821 18.1886 9.75431 17.9336 9.5404 17.5511L 5.2622 10.1567L 2.48136 10.1567L 2.48136 16.9562C 2.48136 17.6361 1.9252 18.1886 1.24068 18.1886C 0.55617 18.1886 -1.30561e-06 17.6361 -1.30561e-06 16.9562L -1.30561e-06 1.01992ZM 2.48136 7.98938L 5.7328 7.98938C 6.2034 7.98938 6.674 7.94688 7.18739 7.86189C 7.65799 7.77689 8.08581 7.6494 8.47085 7.43692C 8.85589 7.22444 9.15537 6.92696 9.36928 6.54449C 9.58319 6.16202 9.71153 5.65206 9.71153 5.0571C 9.71153 4.46215 9.58319 3.95219 9.36928 3.56972C 9.15537 3.18725 8.85589 2.88977 8.47085 2.67729C 8.08581 2.46481 7.65799 2.33732 7.18739 2.25232C 6.71679 2.16733 6.24619 2.12483 5.7328 2.12483L 2.48136 2.12483L 2.48136 7.98938Z" transform="translate(74.4498 10.5949)" fill="#28041A"/>
</g>
<g id="Vector_3">
<path d="M 9.58319 19.1235C 8.17138 19.1235 6.88791 18.8685 5.7328 18.4011C 4.57768 17.9336 3.55091 17.2537 2.69527 16.3612C 1.83963 15.5113 1.1979 14.4914 0.727297 13.344C 0.256694 12.1965 2.61121e-06 10.9216 2.61121e-06 9.56175C 2.61121e-06 8.20186 0.256694 6.92696 0.727297 5.77955C 1.1979 4.63214 1.83963 3.61222 2.69527 2.76228C 3.55091 1.91235 4.5349 1.2324 5.7328 0.722444C 6.88791 0.212483 8.21416 -3.24224e-07 9.58319 -3.24224e-07C 10.995 -3.24224e-07 12.2785 0.25498 13.4336 0.722444C 14.5887 1.2324 15.6155 1.86985 16.4711 2.76228C 17.3267 3.61222 17.9685 4.63214 18.4391 5.77955C 18.9097 6.92696 19.1664 8.20186 19.1664 9.56175C 19.1664 10.9216 18.9097 12.1965 18.4391 13.344C 17.9685 14.4914 17.3267 15.5113 16.4711 16.3612C 15.6155 17.2112 14.6315 17.8911 13.4336 18.4011C 12.2785 18.8685 10.995 19.1235 9.58319 19.1235ZM 9.58319 16.8287C 10.6527 16.8287 11.5939 16.6162 12.4496 16.2337C 13.3052 15.8513 14.0325 15.3413 14.6315 14.6614C 15.2304 14.0239 15.701 13.259 16.0433 12.3665C 16.3855 11.4741 16.5567 10.5392 16.5567 9.56175C 16.5567 8.58433 16.3855 7.60691 16.0433 6.75697C 15.701 5.86454 15.2304 5.0996 14.6315 4.46215C 14.0325 3.8247 13.3052 3.27224 12.4496 2.88977C 11.5939 2.5073 10.6527 2.29482 9.58319 2.29482C 8.51363 2.29482 7.57243 2.5073 6.71679 2.88977C 5.86115 3.27224 5.13385 3.7822 4.5349 4.46215C 3.93595 5.0996 3.46535 5.86454 3.12309 6.75697C 2.78083 7.6494 2.60971 8.58433 2.60971 9.56175C 2.60971 10.5392 2.78083 11.5166 3.12309 12.3665C 3.46535 13.259 3.93595 14.0239 4.5349 14.6614C 5.13385 15.2988 5.86115 15.8513 6.71679 16.2337C 7.61521 16.6162 8.55642 16.8287 9.58319 16.8287Z" transform="translate(88.3112 10.1275)" fill="#28041A"/>
</g>
<g id="Vector_4">
<path d="M 9.58319 19.1235C 8.17138 19.1235 6.88792 18.8685 5.7328 18.4011C 4.57768 17.9336 3.55091 17.2537 2.69527 16.3612C 1.83963 15.5113 1.1979 14.4914 0.727293 13.344C 0.25669 12.1965 -1.30561e-06 10.9216 -1.30561e-06 9.56175C -1.30561e-06 8.20186 0.25669 6.92696 0.727293 5.77955C 1.1979 4.63214 1.83963 3.61222 2.69527 2.76228C 3.55091 1.91235 4.5349 1.2324 5.7328 0.722444C 6.88792 0.212483 8.21416 -3.24224e-07 9.58319 -3.24224e-07C 10.995 -3.24224e-07 12.2785 0.25498 13.4336 0.722444C 14.5887 1.2324 15.6155 1.86985 16.4711 2.76228C 17.3267 3.61222 17.9685 4.63214 18.4391 5.77955C 18.9097 6.92696 19.1664 8.20186 19.1664 9.56175C 19.1664 10.9216 18.9097 12.1965 18.4391 13.344C 17.9685 14.4914 17.3267 15.5113 16.4711 16.3612C 15.6155 17.2112 14.6315 17.8911 13.4336 18.4011C 12.2785 18.8685 10.995 19.1235 9.58319 19.1235ZM 9.58319 16.8287C 10.6527 16.8287 11.5939 16.6162 12.4496 16.2337C 13.3052 15.8513 14.0325 15.3413 14.6315 14.6614C 15.2304 14.0239 15.701 13.259 16.0433 12.3665C 16.3855 11.4741 16.5567 10.5392 16.5567 9.56175C 16.5567 8.58433 16.3855 7.60691 16.0433 6.75697C 15.701 5.86454 15.2304 5.0996 14.6315 4.46215C 14.0325 3.8247 13.3052 3.27224 12.4496 2.88977C 11.5939 2.5073 10.6527 2.29482 9.58319 2.29482C 8.51364 2.29482 7.57243 2.5073 6.71678 2.88977C 5.86114 3.27224 5.13385 3.7822 4.5349 4.46215C 3.93595 5.0996 3.46535 5.86454 3.12309 6.75697C 2.78084 7.6494 2.60971 8.58433 2.60971 9.56175C 2.60971 10.5392 2.78084 11.5166 3.12309 12.3665C 3.46535 13.259 3.93595 14.0239 4.5349 14.6614C 5.13385 15.2988 5.86114 15.8513 6.71678 16.2337C 7.57243 16.6162 8.51364 16.8287 9.58319 16.8287Z" transform="translate(109.103 10.1275)" fill="#28041A"/>
</g>
<g id="Vector_5">
<path d="M 14.717 3.99469C 14.332 4.29216 13.8186 4.24967 13.4336 3.90969C 13.0058 3.52722 12.5779 3.22975 12.0218 2.97477C 11.2089 2.63479 10.396 2.42231 9.5404 2.42231C 8.51363 2.42231 7.57242 2.63479 6.71678 3.01726C 5.86114 3.39973 5.17663 3.90969 4.57768 4.58964C 3.97873 5.26959 3.50813 6.03453 3.20866 6.92696C 2.8664 7.81939 2.69527 8.79681 2.69527 9.81673C 2.69527 10.7942 2.8664 11.6866 3.16587 12.5365C 3.46535 13.3865 3.93595 14.1514 4.49212 14.7888C 5.09107 15.4263 5.77558 15.9363 6.63122 16.3187C 7.48687 16.7012 8.42806 16.8712 9.49761 16.8712C 10.5672 16.8712 11.4656 16.6587 12.2785 16.2337C 12.8346 15.9363 13.3052 15.5538 13.7331 15.1288C 14.0753 14.7463 14.6315 14.7039 15.0165 15.0013L 15.5299 15.3838C 16.0005 15.7238 16.0433 16.4037 15.6582 16.7862C 15.316 17.1262 14.8454 17.5086 14.2892 17.8486C 13.733 18.1886 13.0485 18.5286 12.2357 18.7835C 11.4228 19.0385 10.5244 19.166 9.45484 19.166C 8.00025 19.166 6.71679 18.911 5.51889 18.3586C 4.36377 17.8061 3.37978 17.0837 2.52414 16.1912C 1.71128 15.2988 1.06955 14.2789 0.641734 13.174C 0.213913 12.0691 2.61121e-06 10.9216 2.61121e-06 9.77424C 2.61121e-06 8.37185 0.213916 7.05445 0.684518 5.86454C 1.15512 4.67463 1.79684 3.65471 2.65248 2.76228C 3.50812 1.91235 4.49212 1.2324 5.69001 0.722444C 6.84513 0.25498 8.17138 0 9.58318 0C 10.7811 0 11.979 0.212484 13.1341 0.679947C 13.947 0.977424 14.6315 1.44489 15.2304 1.95485C 15.6582 2.37981 15.6582 3.05976 15.1876 3.44223L 14.717 3.99469Z" transform="translate(136.227 10)" fill="#28041A"/>
</g>
<g id="Vector_6">
<path d="M 0 6.417C 0 5.52457 0.171134 4.67463 0.51339 3.90969C 0.855647 3.14475 1.32624 2.46481 1.88241 1.86985C 2.48136 1.2749 3.16588 0.807437 3.93596 0.50996C 4.74882 0.169987 5.60446 -3.24224e-07 6.50288 -3.24224e-07C 7.4013 -3.24224e-07 8.25695 0.169987 9.06981 0.50996C 9.88267 0.849934 10.5672 1.3174 11.1233 1.86985C 11.7223 2.46481 12.1929 3.14475 12.4924 3.90969C 12.8346 4.67463 13.0057 5.52457 13.0057 6.417C 13.0057 7.30943 12.8346 8.15936 12.4924 8.9243C 12.1501 9.68924 11.6795 10.3692 11.1233 10.9641C 10.5244 11.5591 9.83988 11.9841 9.06981 12.324C 8.25695 12.664 7.4013 12.834 6.50288 12.834C 5.60446 12.834 4.74882 12.664 3.93596 12.324C 3.1231 11.9841 2.43858 11.5166 1.88241 10.9641C 1.28346 10.3692 0.812865 9.73174 0.51339 8.9243C 0.171134 8.11687 0 7.30943 0 6.417ZM 2.48136 6.417C 2.48136 7.05445 2.56692 7.60691 2.78084 8.11687C 2.95196 8.62683 3.25144 9.09429 3.59369 9.43426C 3.93595 9.81673 4.36377 10.1142 4.87715 10.3267C 5.39054 10.5392 5.9467 10.6667 6.54565 10.6667C 7.18738 10.6667 7.74356 10.5392 8.21416 10.3267C 8.72755 10.1142 9.15537 9.81673 9.49763 9.43426C 9.83988 9.05179 10.0966 8.62683 10.3105 8.11687C 10.4816 7.60691 10.61 7.01195 10.61 6.417C 10.61 5.77955 10.5244 5.22709 10.3105 4.71713C 10.1394 4.20717 9.83988 3.73971 9.49763 3.39973C 9.15537 3.01726 8.72755 2.71979 8.21416 2.5073C 7.70078 2.29482 7.1446 2.16733 6.54565 2.16733C 5.90392 2.16733 5.34776 2.29482 4.87715 2.5073C 4.36377 2.71979 3.93595 3.01726 3.59369 3.39973C 3.25144 3.7822 2.99475 4.20717 2.78084 4.71713C 2.56692 5.22709 2.48136 5.77955 2.48136 6.417Z" transform="translate(153.725 16.2895)" fill="#28041A"/>
</g>
<g id="Vector_7">
<path d="M 5.22242e-06 1.69987C 5.22242e-06 1.2324 0.171126 0.849933 0.513382 0.50996C 0.855639 0.169987 1.24069 3.24224e-07 1.71129 3.24224e-07C 2.18189 3.24224e-07 2.56692 0.169987 2.90918 0.50996C 3.25144 0.849933 3.42257 1.2324 3.42257 1.69987C 3.42257 2.16733 3.25144 2.5498 2.90918 2.88977C 2.56692 3.22975 2.18189 3.39973 1.71129 3.39973C 1.24069 3.39973 0.855639 3.22975 0.513382 2.88977C 0.171126 2.5923 5.22242e-06 2.16733 5.22242e-06 1.69987ZM 1.71129 6.07703C 2.35302 6.07703 2.8664 6.58699 2.8664 7.22444L 2.8664 17.1262C 2.8664 17.7636 2.35302 18.2736 1.71129 18.2736C 1.06956 18.2736 0.556167 17.7636 0.556167 17.1262L 0.556167 7.22444C 0.513385 6.58699 1.06956 6.07703 1.71129 6.07703Z" transform="translate(168.57 10.5099)" fill="#28041A"/>
</g>
<g id="Vector_8">
<path d="M 1.12106 0.297477C 1.76279 0.297477 2.27618 0.807437 2.27618 1.44489L 2.27618 2.16733L 2.31896 2.16733C 2.61843 1.52988 3.13182 0.977424 3.85911 0.594954C 4.58641 0.212484 5.44205 -3.24224e-07 6.38325 -3.24224e-07C 6.9822 -3.24224e-07 7.53837 0.084994 8.09454 0.254981C 8.6507 0.424967 9.12131 0.722444 9.50635 1.10491C 9.89139 1.48738 10.2336 1.95485 10.4903 2.5498C 10.747 3.14475 10.8326 3.8247 10.8326 4.63214L 10.8326 11.3466C 10.8326 11.9841 10.3192 12.494 9.67748 12.494C 9.03575 12.494 8.52236 11.9841 8.52236 11.3466L 8.52236 5.31209C 8.52236 4.75963 8.43679 4.24967 8.30845 3.8672C 8.13732 3.48473 7.96619 3.14475 7.66672 2.88977C 7.36724 2.63479 7.11056 2.46481 6.7683 2.33732C 6.42605 2.20983 6.08379 2.16733 5.69875 2.16733C 5.22815 2.16733 4.75754 2.25232 4.3725 2.37981C 3.94468 2.5498 3.60243 2.76228 3.30295 3.10226C 3.00348 3.44223 2.74678 3.8672 2.57565 4.37716C 2.40452 4.88712 2.31896 5.48207 2.31896 6.20452L 2.31896 11.3041C 2.31896 11.9416 1.80558 12.4515 1.16385 12.4515C 0.522116 12.4515 0.00872618 11.9416 0.00872618 11.3041L 0.00872618 1.44489C -0.076838 0.807437 0.479332 0.297477 1.12106 0.297477Z" transform="translate(174.423 16.2895)" fill="#28041A"/>
</g>
</g>
</g>
<g id="Group_3">
<g id="Vector_9">
<path d="M 0.541638 40L 39.4584 40C 39.7563 40 40 39.7563 40 39.4584L 40 0.541638C 40 0.243737 39.7563 0 39.4584 0L 0.541638 0C 0.243737 0 0 0.243737 0 0.541638L 0 39.4584C 0 39.7563 0.243737 40 0.541638 40Z" fill="#EC148E"/>
</g>
<g id="Group_4">
<g id="Vector_10">
<path d="M 11.916 2.06619e-07L -2.06619e-07 11.889L 7.935 19.824L 11.0765 16.6825L 7.52877 13.1347C 7.09546 12.7014 7.09546 11.9702 7.52877 11.5098L 10.6974 8.34123C 11.1307 7.90792 11.8619 7.90792 12.3223 8.34123L 15.3825 11.4015C 15.7075 11.7265 15.8971 12.1869 15.8971 12.6473L 15.8971 21.503L 13.2701 24.13C 12.9452 24.455 12.4848 24.6446 12.0244 24.6446L 3.16858 24.6446L 8.44956 29.9255L 29.086 29.9255C 29.5193 29.9255 29.8714 29.5735 29.8714 29.1402L 29.8714 8.42248L 24.0217 2.57278C 24.2112 2.76236 24.3196 2.97901 24.4279 3.19567C 24.5091 3.38524 24.5362 3.6019 24.5362 3.79147L 24.5362 8.44956L 24.5362 12.0785C 24.5362 12.4306 24.4008 12.7556 24.1571 12.9993L 22.7217 14.4347C 22.2884 14.868 21.5572 14.868 21.0968 14.4347L 17.9282 11.2661C 17.4949 10.8328 17.4949 10.1016 17.9282 9.64117L 19.7427 7.82668L 11.916 2.06619e-07Z" transform="translate(10.1016 10.0745)" fill="#C91379"/>
</g>
</g>
<g id="Group_5">
<g id="Vector_11">
<path d="M 16.5741 4.65809L 11.889 0C 11.6452 0.0812458 11.4557 0.216655 11.2661 0.406229L 0.406229 11.2661C 0.216655 11.4557 0.0812459 11.6452 1.03309e-07 11.889L 4.65809 16.5471L 16.5741 4.65809Z" transform="translate(5.44348 5.41638)" fill="#F6D0E6"/>
</g>
<g id="Vector_12">
<path d="M 10.0745 7.42045L 12.7014 4.7935L 7.935 8.26475e-07L 4.7935 3.1415L 0 7.93501L 8.85579 7.93501C 9.31618 7.93501 9.74949 7.74543 10.0745 7.42045Z" transform="translate(13.2701 26.757)" fill="#F6D0E6"/>
</g>
<g id="Vector_13">
<path d="M 8.6933 4.60393C 8.6933 4.14354 8.50372 3.68314 8.17874 3.35816L 5.11848 0.324983C 4.68517 -0.108328 3.95396 -0.108328 3.49357 0.324983L 0.324983 3.49357C -0.108328 3.92688 -0.108328 4.65809 0.324983 5.11848L 3.8998 8.6933L 8.6933 13.4597L 8.6933 4.60393Z" transform="translate(17.3054 18.0907)" fill="white"/>
</g>
<g id="Vector_14">
<path d="M 4.76642 4.65809L 0.108328 4.13237e-07C 0.027082 0.189574 2.06619e-07 0.406228 2.06619e-07 0.622883L 2.06619e-07 8.74746C 2.06619e-07 9.20785 0.189574 9.66825 0.514557 9.99323L 7.935 17.3866L 12.7285 12.5931L 4.76642 4.65809Z" transform="translate(5.33514 17.3054)" fill="white"/>
</g>
<g id="Vector_15">
<path d="M 16.845 7.36628L 9.99323 0.514556C 9.66825 0.189573 9.20785 0 8.74746 0L 0.622883 0C 0.406228 0 0.216656 0.0270818 4.13237e-07 0.108328L 4.65809 4.76642L 12.5389 12.6473L 17.2512 7.98917C 17.1429 7.77251 17.0345 7.55586 16.845 7.36628Z" transform="translate(17.3054 5.28101)" fill="white"/>
</g>
<g id="Vector_16">
<path d="M 0.321674 8.07041L 3.49026 11.239C 3.92357 11.6723 4.65478 11.6723 5.11518 11.239L 6.55052 9.80366C 6.79425 9.55992 6.92966 9.23494 6.92966 8.88287L 6.92966 5.25389L 6.92966 0.595802C 6.92966 0.379147 6.8755 0.189573 6.82134 -4.13237e-07L 2.16325 4.65809L 0.348756 6.47258C -0.111637 6.90589 -0.111636 7.6371 0.321674 8.07041Z" transform="translate(27.7352 13.2972)" fill="#F6D0E6"/>
</g>
</g>
</g>
</g>
</svg>

