<svg xmlns="http://www.w3.org/2000/svg" xmlns:xlink="http://www.w3.org/1999/xlink" viewBox="0 0 282.69 65.84"><defs><style>.cls-1{fill:#1a1a1a;}.cls-2{fill:url(#linear-gradient);}.cls-3{fill:url(#linear-gradient-2);}.cls-4{fill:#f54782;}.cls-5{fill:url(#linear-gradient-3);}.cls-6{fill:url(#linear-gradient-4);}.cls-7{fill:url(#linear-gradient-5);}</style><linearGradient id="linear-gradient" x1="-8.03" y1="19.12" x2="82.59" y2="17.38" gradientUnits="userSpaceOnUse"><stop offset="0" stop-color="#f54782"/><stop offset="0.21" stop-color="#f54a84"/><stop offset="0.36" stop-color="#f6538a"/><stop offset="0.49" stop-color="#f76395"/><stop offset="0.61" stop-color="#f879a4"/><stop offset="0.73" stop-color="#f996b8"/><stop offset="0.84" stop-color="#fbb9d0"/><stop offset="0.94" stop-color="#fde2eb"/><stop offset="1" stop-color="#fff"/></linearGradient><linearGradient id="linear-gradient-2" x1="30.41" y1="64.63" x2="52.56" y2="40.23" xlink:href="#linear-gradient"/><linearGradient id="linear-gradient-3" x1="-17.8" y1="21.66" x2="48.92" y2="82.4" xlink:href="#linear-gradient"/><linearGradient id="linear-gradient-4" x1="63.69" y1="24.34" x2="23.36" y2="-7.77" xlink:href="#linear-gradient"/><linearGradient id="linear-gradient-5" x1="57.21" y1="42.83" x2="64.18" y2="11.21" xlink:href="#linear-gradient"/></defs><title>Asset 1</title><g id="Layer_2" data-name="Layer 2"><g id="Layer_1-2" data-name="Layer 1"><path class="cls-1" d="M118.15,48.33a24.89,24.89,0,0,1-6.47,2.51,29.59,29.59,0,0,1-6.87.81,20.79,20.79,0,0,1-7.66-1.36,17.86,17.86,0,0,1-6-3.83,16.91,16.91,0,0,1-4-5.91,19.79,19.79,0,0,1-1.41-7.63,19.23,19.23,0,0,1,1.48-7.68,17.38,17.38,0,0,1,4.1-5.89,19,19,0,0,1,6.1-3.8,20.28,20.28,0,0,1,7.5-1.36,21.6,21.6,0,0,1,6.77,1.06,14.5,14.5,0,0,1,5.82,3.62l-3.18,3.33a12,12,0,0,0-4.4-3,13.86,13.86,0,0,0-5.31-1.06A14.4,14.4,0,0,0,99,19.23a13.79,13.79,0,0,0-4.56,3.07,13.92,13.92,0,0,0-3,4.68,16.74,16.74,0,0,0,0,11.83,14.26,14.26,0,0,0,3,4.71,13.45,13.45,0,0,0,4.66,3.1,15.89,15.89,0,0,0,6,1.1,20.36,20.36,0,0,0,4.53-.53,18,18,0,0,0,4.33-1.53V34.73h-8.21V30.81h12.44Z"/><path class="cls-1" d="M125.3,32.77c0-1.07,0-2.08-.1-3s-.1-1.8-.1-2.57h3.72c0,.64,0,1.28.05,1.91s0,1.3,0,2H129a6.35,6.35,0,0,1,1.13-1.66A7.94,7.94,0,0,1,131.89,28a9.78,9.78,0,0,1,2.27-1,9.46,9.46,0,0,1,2.72-.37,5.29,5.29,0,0,1,.8.05,3.43,3.43,0,0,1,.81.2l-.25,4a7.06,7.06,0,0,0-2.12-.31c-2.41,0-4.17.78-5.26,2.34a11.1,11.1,0,0,0-1.63,6.42V50.74H125.3Z"/><path class="cls-1" d="M139.75,39a12.78,12.78,0,0,1,1-5,11.88,11.88,0,0,1,2.61-3.9,11.67,11.67,0,0,1,4-2.55,14.53,14.53,0,0,1,10.07,0,11.67,11.67,0,0,1,4,2.55,11.9,11.9,0,0,1,2.62,3.9A13.82,13.82,0,0,1,164,44a11.9,11.9,0,0,1-2.62,3.9,11.65,11.65,0,0,1-4,2.54,14.38,14.38,0,0,1-10.07,0,11.65,11.65,0,0,1-4-2.54,11.88,11.88,0,0,1-2.61-3.9A12.79,12.79,0,0,1,139.75,39ZM144,39a9.92,9.92,0,0,0,.58,3.45A7.89,7.89,0,0,0,148.89,47a9.07,9.07,0,0,0,6.89,0,7.89,7.89,0,0,0,4.33-4.63,10.55,10.55,0,0,0,0-6.9,8,8,0,0,0-1.68-2.77,8.08,8.08,0,0,0-2.65-1.86,9.07,9.07,0,0,0-6.89,0,8.08,8.08,0,0,0-2.65,1.86,8,8,0,0,0-1.68,2.77A9.92,9.92,0,0,0,144,39Z"/><path class="cls-1" d="M168.65,39a13,13,0,0,1,.95-5,12.06,12.06,0,0,1,2.62-3.9,11.67,11.67,0,0,1,4-2.55,14.53,14.53,0,0,1,10.07,0,11.67,11.67,0,0,1,4,2.55,11.9,11.9,0,0,1,2.62,3.9,13.82,13.82,0,0,1,0,10.07,11.9,11.9,0,0,1-2.62,3.9,11.65,11.65,0,0,1-4,2.54,14.38,14.38,0,0,1-10.07,0,11.65,11.65,0,0,1-4-2.54A12.06,12.06,0,0,1,169.6,44,13,13,0,0,1,168.65,39Zm4.23,0a9.92,9.92,0,0,0,.58,3.45A7.89,7.89,0,0,0,177.79,47a9.07,9.07,0,0,0,6.89,0A7.89,7.89,0,0,0,189,42.41a10.55,10.55,0,0,0,0-6.9,8,8,0,0,0-1.68-2.77,8.08,8.08,0,0,0-2.65-1.86,9.07,9.07,0,0,0-6.89,0,8.08,8.08,0,0,0-2.65,1.86,8,8,0,0,0-1.68,2.77A9.92,9.92,0,0,0,172.88,39Z"/><path class="cls-1" d="M215.67,33.07A7.9,7.9,0,0,0,213,30.88a7.63,7.63,0,0,0-3.23-.68,8.43,8.43,0,0,0-3.47.68,6.55,6.55,0,0,0-2.49,1.89,8.41,8.41,0,0,0-1.49,2.79,11.36,11.36,0,0,0-.5,3.4,9.75,9.75,0,0,0,.58,3.4A8.75,8.75,0,0,0,204,45.15,7.23,7.23,0,0,0,206.46,47a7.53,7.53,0,0,0,3.27.68,6.94,6.94,0,0,0,6-2.92l2.92,2.77a10.19,10.19,0,0,1-4,2.87,13.84,13.84,0,0,1-9.87,0,10.64,10.64,0,0,1-3.85-2.57A11.73,11.73,0,0,1,198.43,44a13.62,13.62,0,0,1-.88-5,13.42,13.42,0,0,1,.88-4.93,11.76,11.76,0,0,1,2.49-3.93,11.41,11.41,0,0,1,3.85-2.59,12.85,12.85,0,0,1,5-.93,13.68,13.68,0,0,1,5,.9,11,11,0,0,1,4.11,2.82Z"/><path class="cls-1" d="M220.81,39a13,13,0,0,1,.95-5,12.06,12.06,0,0,1,2.62-3.9,11.67,11.67,0,0,1,4-2.55,14.53,14.53,0,0,1,10.07,0,11.67,11.67,0,0,1,4,2.55,11.9,11.9,0,0,1,2.62,3.9A13.82,13.82,0,0,1,245,44a11.9,11.9,0,0,1-2.62,3.9,11.65,11.65,0,0,1-4,2.54,14.38,14.38,0,0,1-10.07,0,11.65,11.65,0,0,1-4-2.54,12.06,12.06,0,0,1-2.62-3.9A13,13,0,0,1,220.81,39ZM225,39a9.92,9.92,0,0,0,.58,3.45A7.89,7.89,0,0,0,230,47a9.07,9.07,0,0,0,6.89,0,7.89,7.89,0,0,0,4.33-4.63,10.55,10.55,0,0,0,0-6.9,8,8,0,0,0-1.68-2.77,8.08,8.08,0,0,0-2.65-1.86,9.07,9.07,0,0,0-6.89,0,8.08,8.08,0,0,0-2.65,1.86,8,8,0,0,0-1.68,2.77A9.92,9.92,0,0,0,225,39Z"/><path class="cls-1" d="M250.51,18a2.81,2.81,0,0,1,.83-2,2.75,2.75,0,0,1,2-.85,2.72,2.72,0,0,1,2,.85,2.77,2.77,0,0,1,.83,2,2.76,2.76,0,0,1-2.87,2.87A2.77,2.77,0,0,1,250.51,18Zm.91,9.21h3.93V50.74h-3.93Z"/><path class="cls-1" d="M262.14,32.77c0-1.07,0-2.08-.1-3s-.1-1.8-.1-2.57h3.73c0,.64,0,1.28.05,1.91s0,1.3,0,2h.1A6.88,6.88,0,0,1,267,29.4,8.24,8.24,0,0,1,268.74,28,9.59,9.59,0,0,1,271,27a9.39,9.39,0,0,1,2.71-.37,10.38,10.38,0,0,1,4,.7,7.65,7.65,0,0,1,2.79,2,7.94,7.94,0,0,1,1.64,3.05,13.77,13.77,0,0,1,.53,3.9V50.74h-3.93V36.6a7.57,7.57,0,0,0-1.31-4.69,4.8,4.8,0,0,0-4.08-1.71,7.65,7.65,0,0,0-3.3.66,5.7,5.7,0,0,0-2.26,1.86,8.14,8.14,0,0,0-1.31,2.87,14.49,14.49,0,0,0-.43,3.67V50.74h-3.93Z"/><path class="cls-2" d="M36.93,8.61,28.6.28a4.08,4.08,0,0,0-1.49,1L1.22,27.12a3.92,3.92,0,0,0-.95,1.49L8.6,36.94Z"/><path class="cls-3" d="M38.72,64.62l7.68-7.68-8.6-8.6-8.9,8.9-8.6,8.6H35.78A4.16,4.16,0,0,0,38.72,64.62Z"/><path class="cls-4" d="M46.4,41.46c0-1.85-1.83-3.56-2.61-4.34l-7.27-7.27a2.73,2.73,0,0,0-3.85,0L27.92,34.6a2.71,2.71,0,0,0,0,3.85l9.88,9.89,8.6,8.6Z"/><path class="cls-5" d="M8.6,36.94.27,28.61A4.19,4.19,0,0,0,0,30.06V43.82a4.2,4.2,0,0,0,1.22,3L20.3,65.84l8.6-8.6Z"/><path class="cls-6" d="M63.05,17.52,46.75,1.22A4.16,4.16,0,0,0,43.81,0H30.05a4.29,4.29,0,0,0-1.46.27L36.93,8.6,57.06,28.74l8.33-8.33A17.74,17.74,0,0,0,63.05,17.52Z"/><path class="cls-7" d="M65.67,21.86a4,4,0,0,0-.28-1.45l-8.33,8.33-4.31,4.31a2.73,2.73,0,0,0,0,3.85l4.76,4.75a2.73,2.73,0,0,0,3.85,0l3.41-3.41a3.09,3.09,0,0,0,.9-2.17Z"/></g></g></svg>