
<svg width="200px" height="50px" viewBox="0 0 200 50" version="1.1" xmlns="http://www.w3.org/2000/svg" xmlns:xlink="http://www.w3.org/1999/xlink">
    <g id="Social-Icons" stroke="none" stroke-width="1" fill="none" fill-rule="evenodd">
        <g id="Page-1">
            <g id="logo">
                <path d="M1.9998,50 L47.9998,50 C49.1048,50 49.9998,49.104 49.9998,48 L49.9998,2 C49.9998,0.896 49.1048,0 47.9998,0 L1.9998,0 C0.8958,0 -0.0002,0.896 -0.0002,2 L-0.0002,48 C-0.0002,49.104 0.8958,50 1.9998,50" id="Fill-1" fill="#EB178D"></path>
                <path d="M27.5189,12.604 L12.6449,27.478 L22.5679,37.4 L26.5089,33.459 L22.0529,29.003 C21.4949,28.445 21.4949,27.541 22.0529,26.982 L26.0139,23.021 C26.5719,22.463 27.4769,22.463 28.0349,23.021 L31.8509,26.837 C32.2599,27.247 32.4909,27.804 32.4909,28.383 L32.4909,39.441 L29.1909,42.741 C28.7809,43.151 28.2239,43.382 27.6439,43.382 L16.5859,43.382 L23.2049,50 L49.0099,50 C49.5569,50 49.9999,49.557 49.9999,49.01 L49.9999,23.12 L42.6969,15.816 C42.9199,16.04 43.0839,16.309 43.1929,16.6 C43.2829,16.842 43.3359,17.098 43.3359,17.361 L43.3359,23.202 L43.3359,27.754 C43.3359,28.18 43.1669,28.589 42.8659,28.891 L41.0739,30.683 C40.5159,31.24 39.6109,31.24 39.0529,30.683 L35.0919,26.721 C34.5339,26.163 34.5339,25.258 35.0919,24.701 L37.3539,22.438 L27.5169,12.6" id="Fill-4" fill="#C9197A"></path>
                <path d="M27.5189,12.604 L21.6779,6.763 C21.3879,6.872 21.1209,7.039 20.8969,7.263 L7.3049,20.855 C7.0809,21.079 6.9129,21.346 6.8049,21.637 L12.6449,27.478 L27.5189,12.604 Z" id="Fill-6" fill="#F3CFE2"></path>
                <path d="M29.1908,42.7412 L32.4908,39.4412 L26.5088,33.4592 L22.5678,37.4002 L16.5868,43.3822 L27.6438,43.3822 C28.2238,43.3822 28.7808,43.1512 29.1908,42.7412" id="Fill-8" fill="#F3CFE2"></path>
                <path d="M32.4906,28.3828 C32.4906,27.8038 32.2606,27.2468 31.8506,26.8368 L28.0346,23.0208 C27.4766,22.4638 26.5726,22.4638 26.0146,23.0208 L22.0526,26.9828 C21.4946,27.5408 21.4946,28.4448 22.0526,29.0028 L26.5096,33.4588 L32.4906,39.4418 L32.4906,28.3828 Z" id="Fill-10" fill="#FFFFFF"></path>
                <path d="M12.6453,27.4775 L6.8043,21.6365 C6.7133,21.8785 6.6643,22.1375 6.6643,22.4015 L6.6643,32.5525 C6.6643,33.1325 6.8943,33.6895 7.3043,34.0995 L16.5863,43.3815 L22.5683,37.4005 L12.6453,27.4775 Z" id="Fill-12" fill="#FFFFFF"></path>
                <path d="M42.6961,15.8159 L34.1391,7.2589 C33.7291,6.8489 33.1731,6.6179 32.5921,6.6179 L22.4411,6.6189 C22.1761,6.6189 21.9191,6.6689 21.6761,6.7589 L27.5171,12.5999 L37.3541,22.4379 L43.1931,16.5999 C43.0841,16.3089 42.9201,16.0399 42.6961,15.8159" id="Fill-14" fill="#FFFFFF"></path>
                <path d="M35.0916,26.7207 L39.0526,30.6827 C39.6116,31.2407 40.5156,31.2407 41.0736,30.6827 L42.8656,28.8907 C43.1666,28.5887 43.3366,28.1797 43.3366,27.7537 L43.3366,23.2017 L43.3366,17.3617 C43.3366,17.0977 43.2826,16.8417 43.1926,16.5997 L37.3546,22.4377 L35.0916,24.7007 C34.5336,25.2587 34.5336,26.1627 35.0916,26.7207" id="Fill-16" fill="#F3CFE2"></path>
            </g>
            <g id="type" transform="translate(68.000000, 13.000000)" fill="#000000">
                <path d="M22.681,11.5767 L22.681,23.4147 C22.092,23.7767 21.426,24.0927 20.68,24.3647 C19.934,24.6357 19.159,24.8687 18.357,25.0597 C17.553,25.2507 16.74,25.3927 15.914,25.4837 C15.088,25.5737 14.314,25.6187 13.591,25.6187 C11.556,25.6187 9.742,25.2807 8.147,24.6017 C6.552,23.9227 5.206,23.0077 4.11,21.8547 C3.013,20.7017 2.177,19.3607 1.6,17.8337 C1.024,16.3087 0.735,14.6977 0.735,13.0007 C0.735,11.2157 1.046,9.5527 1.667,8.0147 C2.289,6.4777 3.149,5.1437 4.245,4.0127 C5.342,2.8827 6.66,1.9947 8.198,1.3497 C9.735,0.7047 11.42,0.3827 13.252,0.3827 C15.468,0.3827 17.276,0.6597 18.679,1.2147 C20.08,1.7687 21.256,2.5327 22.206,3.5047 L19.9,5.9807 C18.905,5.0297 17.853,4.3687 16.745,3.9957 C15.637,3.6227 14.472,3.4357 13.252,3.4357 C11.871,3.4357 10.628,3.6907 9.52,4.1997 C8.412,4.7077 7.462,5.3917 6.671,6.2507 C5.879,7.1107 5.269,8.1227 4.839,9.2867 C4.41,10.4517 4.196,11.6897 4.196,13.0007 C4.196,14.3587 4.432,15.6187 4.907,16.7837 C5.382,17.9487 6.038,18.9597 6.874,19.8187 C7.711,20.6787 8.695,21.3507 9.826,21.8367 C10.955,22.3237 12.188,22.5667 13.523,22.5667 C14.676,22.5667 15.767,22.4597 16.796,22.2437 C17.825,22.0297 18.701,21.7187 19.425,21.3117 L19.425,14.6297 L14.1,14.6297 L14.1,11.5767 L22.681,11.5767 Z" id="Fill-18"></path>
                <path d="M26.8197,8.9312 L29.8727,8.9312 L29.8727,11.4072 L29.9397,11.4072 C30.1437,10.9772 30.4147,10.5882 30.7547,10.2372 C31.0937,9.8862 31.4717,9.5872 31.8907,9.3382 C32.3077,9.0892 32.7657,8.8912 33.2637,8.7442 C33.7617,8.5982 34.2587,8.5242 34.7567,8.5242 C35.2537,8.5242 35.7067,8.5922 36.1137,8.7272 L35.9777,12.0172 C35.7287,11.9502 35.4797,11.8932 35.2317,11.8482 C34.9817,11.8032 34.7337,11.7802 34.4857,11.7802 C32.9927,11.7802 31.8507,12.1992 31.0587,13.0352 C30.2677,13.8722 29.8727,15.1722 29.8727,16.9362 L29.8727,25.0092 L26.8197,25.0092 L26.8197,8.9312 Z" id="Fill-20"></path>
                <path d="M40.257,17.446 C40.257,18.26 40.38,19.012 40.629,19.701 C40.878,20.391 41.229,20.979 41.681,21.466 C42.133,21.953 42.687,22.337 43.343,22.619 C43.999,22.902 44.734,23.043 45.548,23.043 C46.362,23.043 47.097,22.902 47.753,22.619 C48.408,22.337 48.962,21.953 49.414,21.466 C49.867,20.979 50.217,20.391 50.466,19.701 C50.715,19.012 50.84,18.26 50.84,17.446 C50.84,16.633 50.715,15.881 50.466,15.19 C50.217,14.501 49.867,13.913 49.414,13.427 C48.962,12.941 48.408,12.557 47.753,12.273 C47.097,11.991 46.362,11.85 45.548,11.85 C44.734,11.85 43.999,11.991 43.343,12.273 C42.687,12.557 42.133,12.941 41.681,13.427 C41.229,13.913 40.878,14.501 40.629,15.19 C40.38,15.881 40.257,16.633 40.257,17.446 M37,17.446 C37,16.271 37.221,15.174 37.661,14.156 C38.103,13.138 38.708,12.245 39.477,11.476 C40.245,10.708 41.151,10.102 42.191,9.661 C43.23,9.221 44.349,9 45.548,9 C46.746,9 47.865,9.221 48.906,9.661 C49.945,10.102 50.851,10.708 51.62,11.476 C52.388,12.245 52.993,13.138 53.434,14.156 C53.875,15.174 54.096,16.271 54.096,17.446 C54.096,18.623 53.875,19.724 53.434,20.753 C52.993,21.782 52.388,22.675 51.62,23.433 C50.851,24.191 49.945,24.789 48.906,25.23 C47.865,25.672 46.746,25.892 45.548,25.892 C44.349,25.892 43.23,25.672 42.191,25.23 C41.151,24.789 40.245,24.191 39.477,23.433 C38.708,22.675 38.103,21.782 37.661,20.753 C37.221,19.724 37,18.623 37,17.446" id="Fill-22"></path>
                <path d="M59.348,17.446 C59.348,18.26 59.471,19.012 59.72,19.701 C59.969,20.391 60.32,20.979 60.772,21.466 C61.224,21.953 61.778,22.337 62.434,22.619 C63.09,22.902 63.825,23.043 64.639,23.043 C65.453,23.043 66.188,22.902 66.844,22.619 C67.499,22.337 68.053,21.953 68.505,21.466 C68.958,20.979 69.308,20.391 69.557,19.701 C69.806,19.012 69.931,18.26 69.931,17.446 C69.931,16.633 69.806,15.881 69.557,15.19 C69.308,14.501 68.958,13.913 68.505,13.427 C68.053,12.941 67.499,12.557 66.844,12.273 C66.188,11.991 65.453,11.85 64.639,11.85 C63.825,11.85 63.09,11.991 62.434,12.273 C61.778,12.557 61.224,12.941 60.772,13.427 C60.32,13.913 59.969,14.501 59.72,15.19 C59.471,15.881 59.348,16.633 59.348,17.446 M56.091,17.446 C56.091,16.271 56.312,15.174 56.752,14.156 C57.194,13.138 57.799,12.245 58.568,11.476 C59.336,10.708 60.242,10.102 61.282,9.661 C62.321,9.221 63.44,9 64.639,9 C65.837,9 66.956,9.221 67.997,9.661 C69.036,10.102 69.942,10.708 70.711,11.476 C71.479,12.245 72.084,13.138 72.525,14.156 C72.966,15.174 73.187,16.271 73.187,17.446 C73.187,18.623 72.966,19.724 72.525,20.753 C72.084,21.782 71.479,22.675 70.711,23.433 C69.942,24.191 69.036,24.789 67.997,25.23 C66.956,25.672 65.837,25.892 64.639,25.892 C63.44,25.892 62.321,25.672 61.282,25.23 C60.242,24.789 59.336,24.191 58.568,23.433 C57.799,22.675 57.194,21.782 56.752,20.753 C56.312,19.724 56.091,18.623 56.091,17.446" id="Fill-22-Copy"></path>
                <path d="M87.5003,13.2041 C86.9353,12.6171 86.3413,12.1701 85.7203,11.8651 C85.0983,11.5601 84.3563,11.4071 83.4983,11.4071 C82.6613,11.4071 81.9323,11.5601 81.3103,11.8651 C80.6883,12.1701 80.1683,12.5891 79.7493,13.1201 C79.3313,13.6521 79.0153,14.2631 78.8003,14.9521 C78.5843,15.6421 78.4783,16.3591 78.4783,17.1051 C78.4783,17.8511 78.6023,18.5581 78.8513,19.2251 C79.1003,19.8921 79.4493,20.4751 79.9023,20.9731 C80.3543,21.4701 80.8963,21.8601 81.5303,22.1421 C82.1633,22.4261 82.8753,22.5661 83.6673,22.5661 C84.5263,22.5661 85.2623,22.4141 85.8723,22.1081 C86.4823,21.8031 87.0473,21.3571 87.5683,20.7691 L89.7383,22.9391 C88.9463,23.8211 88.0253,24.4551 86.9753,24.8391 C85.9233,25.2241 84.8103,25.4161 83.6333,25.4161 C82.3903,25.4161 81.2533,25.2121 80.2243,24.8061 C79.1953,24.3981 78.3083,23.8281 77.5623,23.0931 C76.8153,22.3571 76.2383,21.4761 75.8323,20.4461 C75.4253,19.4181 75.2223,18.2821 75.2223,17.0371 C75.2223,15.7951 75.4253,14.6521 75.8323,13.6111 C76.2383,12.5721 76.8103,11.6791 77.5453,10.9331 C78.2793,10.1861 79.1613,9.6041 80.1903,9.1851 C81.2203,8.7671 82.3673,8.5581 83.6333,8.5581 C84.8103,8.5581 85.9343,8.7671 87.0083,9.1851 C88.0823,9.6041 89.0153,10.2421 89.8073,11.1021 L87.5003,13.2041 Z" id="Fill-26"></path>
                <path d="M93.8089,16.9697 C93.8089,17.7837 93.9329,18.5357 94.1819,19.2247 C94.4309,19.9147 94.7819,20.5027 95.2339,20.9897 C95.6859,21.4767 96.2399,21.8607 96.8959,22.1427 C97.5509,22.4257 98.2869,22.5667 99.0999,22.5667 C99.9139,22.5667 100.6489,22.4257 101.3049,22.1427 C101.9609,21.8607 102.5149,21.4767 102.9669,20.9897 C103.4189,20.5027 103.7699,19.9147 104.0189,19.2247 C104.2679,18.5357 104.3919,17.7837 104.3919,16.9697 C104.3919,16.1567 104.2679,15.4047 104.0189,14.7137 C103.7699,14.0247 103.4189,13.4367 102.9669,12.9507 C102.5149,12.4647 101.9609,12.0807 101.3049,11.7967 C100.6489,11.5147 99.9139,11.3737 99.0999,11.3737 C98.2869,11.3737 97.5509,11.5147 96.8959,11.7967 C96.2399,12.0807 95.6859,12.4647 95.2339,12.9507 C94.7819,13.4367 94.4309,14.0247 94.1819,14.7137 C93.9329,15.4047 93.8089,16.1567 93.8089,16.9697 M90.5529,16.9697 C90.5529,15.7947 90.7729,14.6977 91.2139,13.6797 C91.6559,12.6617 92.2599,11.7687 93.0289,10.9997 C93.7979,10.2317 94.7029,9.6257 95.7429,9.1847 C96.7829,8.7447 97.9019,8.5237 99.0999,8.5237 C100.2989,8.5237 101.4179,8.7447 102.4579,9.1847 C103.4979,9.6257 104.4039,10.2317 105.1719,10.9997 C105.9409,11.7687 106.5459,12.6617 106.9869,13.6797 C107.4269,14.6977 107.6489,15.7947 107.6489,16.9697 C107.6489,18.1467 107.4269,19.2477 106.9869,20.2767 C106.5459,21.3057 105.9409,22.1987 105.1719,22.9567 C104.4039,23.7147 103.4979,24.3127 102.4579,24.7537 C101.4179,25.1957 100.2989,25.4157 99.0999,25.4157 C97.9019,25.4157 96.7829,25.1957 95.7429,24.7537 C94.7029,24.3127 93.7979,23.7147 93.0289,22.9567 C92.2599,22.1987 91.6559,21.3057 91.2139,20.2767 C90.7729,19.2477 90.5529,18.1467 90.5529,16.9697" id="Fill-28"></path>
                <path d="M117.5863,8.9312 L120.6393,8.9312 L120.6393,11.4072 L120.7063,11.4072 C121.0913,10.5472 121.7583,9.8522 122.7083,9.3212 C123.6573,8.7892 124.7543,8.5242 125.9983,8.5242 C126.7673,8.5242 127.5073,8.6422 128.2203,8.8802 C128.9333,9.1182 129.5543,9.4852 130.0853,9.9832 C130.6163,10.4802 131.0403,11.1192 131.3573,11.8992 C131.6743,12.6792 131.8323,13.6002 131.8323,14.6632 L131.8323,25.0092 L128.7793,25.0092 L128.7793,15.5112 C128.7793,14.7652 128.6783,14.1272 128.4753,13.5952 C128.2713,13.0632 127.9993,12.6342 127.6603,12.3062 C127.3203,11.9782 126.9313,11.7412 126.4903,11.5942 C126.0493,11.4472 125.5913,11.3732 125.1163,11.3732 C124.4823,11.3732 123.8953,11.4742 123.3523,11.6792 C122.8103,11.8822 122.3353,12.2042 121.9283,12.6452 C121.5213,13.0862 121.2043,13.6452 120.9783,14.3242 C120.7513,15.0022 120.6393,15.8062 120.6393,16.7322 L120.6393,25.0092 L117.5863,25.0092 L117.5863,8.9312 Z" id="Fill-32"></path>
                <polygon id="Path" points="110.701 25.009 113.754 25.009 113.754 8.931 110.701 8.931"></polygon>
                <path d="M109.989,3.165 C109.989,2.554 110.208,2.028 110.65,1.587 C111.091,1.146 111.617,0.926 112.227,0.926 C112.837,0.926 113.364,1.146 113.805,1.587 C114.245,2.028 114.466,2.554 114.466,3.165 C114.466,3.775 114.245,4.301 113.805,4.742 C113.364,5.183 112.837,5.403 112.227,5.403 C111.617,5.403 111.091,5.183 110.65,4.742 C110.208,4.301 109.989,3.775 109.989,3.165 L109.989,3.165 Z" id="Path"></path>
            </g>
        </g>
    </g>
</svg>