<svg width="186" height="36" viewBox="0 0 186 36" version="1.1" xmlns="http://www.w3.org/2000/svg" xmlns:xlink="http://www.w3.org/1999/xlink">
<g id="Canvas" fill="none">
<g id="Group">
<g id="Group_2">
<g id="Vector">
<path d="M 19.706 5.593L 14.1759 0C 13.8643 0.0787746 13.6307 0.236324 13.397 0.472648L 0.467337 13.5492C 0.233668 13.7856 0.0778895 14.0219 2.32129e-09 14.337L 5.53015 19.93L 19.706 5.593Z" transform="translate(0.155457 0.787598)" fill="#C91379"/>
</g>
<g id="Vector_2">
<path d="M 11.995 8.90153L 15.1106 5.75055L 9.42462 -1.20201e-06L 5.68593 3.78118L 2.97125e-07 9.53173L 10.5151 9.53173C 11.1382 9.53173 11.6055 9.2954 11.995 8.90153Z" transform="translate(9.42462 26.4683)" fill="#C91379"/>
</g>
<g id="Vector_3">
<path d="M 10.3788 5.61269C 10.3788 5.06127 10.1451 4.50985 9.75565 4.11597L 6.09485 0.413566C 5.54962 -0.137856 4.69284 -0.137856 4.14761 0.413566L 0.408919 4.19475C -0.136307 4.74617 -0.136307 5.61269 0.408919 6.16411L 4.61495 10.4179L 10.3009 16.1685L 10.3009 5.61269L 10.3788 5.61269Z" transform="translate(14.2343 15.9717)" fill="#EC148E"/>
</g>
<g id="Vector_4">
<path d="M 5.68593 5.593L 0.155779 6.01003e-07C 0.0778895 0.15755 0 0.393873 0 0.708972L 0 10.477C 0 11.0284 0.233668 11.5799 0.623116 11.9737L 9.42462 20.8753L 15.1106 15.1247L 5.68593 5.593Z" transform="translate(0 15.1245)" fill="#EC148E"/>
</g>
<g id="Group_3">
<g id="Vector_5">
<path d="M 19.9397 8.90153L 11.8392 0.630197C 11.4497 0.236324 10.9045 -9.39067e-09 10.3593 -9.39067e-09L 0.701005 -9.39067e-09C 0.467336 -9.39067e-09 0.233668 0.0787746 -2.97125e-07 0.157549L 5.53015 5.75055L 14.8769 15.2035L 20.407 9.6105C 20.3291 9.37418 20.1734 9.13786 19.9397 8.90153Z" transform="translate(14.3317 0.55127)" fill="#EC148E"/>
</g>
<g id="Vector_6">
<path d="M 0.408919 9.76805L 4.14761 13.5492C 4.69284 14.1007 5.54962 14.1007 6.09485 13.5492L 7.80842 11.8162C 8.11998 11.5011 8.27576 11.1072 8.27576 10.7133L 8.27576 6.30197L 8.27576 0.708972C 8.27576 0.472648 8.19787 0.236324 8.11998 -3.00501e-07L 2.58982 5.593L 0.408919 7.79869C -0.136307 8.35011 -0.136307 9.2954 0.408919 9.76805Z" transform="translate(26.6966 10.1616)" fill="#C91379"/>
</g>
</g>
</g>
<g id="Group_4">
<g id="Vector_7">
<path d="M 18.2261 10.5558L 18.2261 17.7243C 18.2261 18.8271 17.603 19.7724 16.5905 20.1663C 15.9673 20.4026 15.3442 20.5602 14.6432 20.7177C 13.9422 20.8753 13.3191 21.0328 12.6181 21.1116C 11.9171 21.1904 11.294 21.1904 10.6709 21.1904C 8.95729 21.1904 7.47739 20.8753 6.15327 20.3238C 4.82915 19.7724 3.73869 18.9847 2.80402 18.0394C 1.86935 17.0941 1.16834 15.9125 0.701005 14.6521C 0.233668 13.3917 1.1885e-06 12.0525 1.1885e-06 10.5558C 1.1885e-06 9.05908 0.23367 7.64114 0.778896 6.38074C 1.32412 5.12035 2.02512 3.93873 2.88191 2.99343C 3.81658 2.04814 4.90703 1.26039 6.15327 0.787746C 7.3995 0.236324 8.80151 0 10.3593 0C 12.2286 0 13.7085 0.236324 14.8769 0.708971C 15.5 0.945295 16.0452 1.26039 16.5905 1.57549C 17.2915 2.04814 17.3693 3.07221 16.8241 3.70241C 16.3568 4.25383 15.5779 4.3326 15.0327 3.93873C 14.4874 3.54486 13.9422 3.22976 13.3191 3.07221C 12.3844 2.75711 11.4498 2.59956 10.4372 2.59956C 9.26885 2.59956 8.25628 2.83589 7.32161 3.22976C 6.38694 3.62363 5.60804 4.25383 4.98492 4.9628C 4.36181 5.67177 3.81658 6.53829 3.42714 7.48359C 3.03769 8.42888 2.88191 9.53173 2.88191 10.6346C 2.88191 11.7374 3.11558 12.8403 3.50503 13.7856C 3.89447 14.7309 4.4397 15.5974 5.1407 16.3063C 5.84171 17.0153 6.6206 17.5667 7.55528 18.0394C 8.48995 18.4333 9.50251 18.6696 10.593 18.6696C 11.5276 18.6696 12.4623 18.5908 13.3191 18.4333C 14.1759 18.2757 14.8769 17.9606 15.5 17.6455L 15.5 12.0525L 12.3065 12.0525C 11.6055 12.0525 11.0603 11.5011 11.0603 10.7921C 11.0603 10.0832 11.6055 9.53173 12.3065 9.53173L 17.0578 9.53173C 17.7588 9.45295 18.2261 10.0044 18.2261 10.5558Z" transform="translate(43.1508 10.6348)" fill="white"/>
</g>
<g id="Vector_8">
<path d="M -1.1885e-06 1.10284C -1.1885e-06 0.472648 0.467337 1.50251e-07 1.09045 1.50251e-07L 7.01005 1.50251e-07C 8.25628 1.50251e-07 9.34673 0.157549 10.2035 0.551422C 11.0603 0.866521 11.6834 1.33917 12.1508 1.89059C 12.6181 2.44201 12.9296 3.07221 13.1633 3.70241C 13.3191 4.41138 13.4749 5.04157 13.4749 5.67177C 13.4749 6.30197 13.397 6.93217 13.1633 7.56236C 12.9296 8.19256 12.6181 8.66521 12.2286 9.21663C 11.8392 9.68928 11.294 10.0831 10.6709 10.477C 10.0477 10.7921 9.34673 11.0284 8.64573 11.1072L 13.0075 18.1969C 13.5528 19.1422 12.9297 20.3238 11.8392 20.3238L 11.6834 20.3238C 11.2161 20.3238 10.7487 20.0875 10.5151 19.6149L 5.84171 11.4223L 2.80402 11.4223L 2.80402 18.9059C 2.80402 19.6937 2.1809 20.2451 1.4799 20.2451C 0.701005 20.2451 0.155781 19.6149 0.155781 18.9059L 0.155781 1.10284L -1.1885e-06 1.10284ZM 2.64824 8.82276L 6.23115 8.82276C 6.77638 8.82276 7.24372 8.74398 7.78894 8.66521C 8.33417 8.58643 8.80151 8.42888 9.19096 8.19256C 9.5804 7.95624 9.89196 7.64114 10.1256 7.24726C 10.3593 6.85339 10.5151 6.30197 10.5151 5.593C 10.5151 4.88403 10.3593 4.3326 10.1256 3.93873C 9.89196 3.54486 9.5804 3.15098 9.19096 2.99344C 8.80151 2.75711 8.33417 2.59956 7.78894 2.52079C 7.24372 2.44201 6.77638 2.36324 6.23115 2.36324L 2.64824 2.36324L 2.64824 8.82276Z" transform="translate(65.5051 11.2651)" fill="white"/>
</g>
<g id="Vector_9">
<path d="M 10.3593 21.1116C 8.80151 21.1116 7.47739 20.8753 6.15327 20.3238C 4.90704 19.7724 3.81658 19.0635 2.88191 18.1182C 1.94723 17.1729 1.24623 16.07 0.778894 14.7309C 0.233668 13.4705 0 12.0525 0 10.5558C 0 9.05908 0.233668 7.64114 0.778894 6.38074C 1.32412 5.12035 2.02512 3.93873 2.88191 2.99344C 3.81658 2.04814 4.90704 1.26039 6.15327 0.787746C 7.3995 0.236324 8.80151 -1.50251e-07 10.3593 -1.50251e-07C 11.9171 -1.50251e-07 13.2412 0.236324 14.5653 0.787746C 15.8116 1.33917 16.902 2.04814 17.8367 2.99344C 18.7714 3.93873 19.4724 5.04157 19.9397 6.38074C 20.4849 7.64114 20.7186 9.05908 20.7186 10.5558C 20.7186 12.0525 20.4849 13.4705 19.9397 14.7309C 19.3945 15.9912 18.6935 17.1729 17.8367 18.1182C 16.902 19.0635 15.8116 19.8512 14.5653 20.3238C 13.3191 20.8753 11.9171 21.1116 10.3593 21.1116ZM 10.3593 18.5908C 11.5276 18.5908 12.5402 18.3545 13.4749 17.9606C 14.4096 17.5667 15.1884 16.9365 15.8116 16.2276C 16.4347 15.5186 16.9799 14.6521 17.3693 13.7068C 17.7588 12.7615 17.9146 11.6586 17.9146 10.5558C 17.9146 9.45295 17.7588 8.42888 17.3693 7.40481C 16.9799 6.45952 16.5126 5.593 15.8116 4.88403C 15.1884 4.17505 14.3317 3.62363 13.4749 3.15099C 12.5402 2.75711 11.5276 2.52079 10.3593 2.52079C 9.19096 2.52079 8.17839 2.75711 7.24372 3.15099C 6.30905 3.54486 5.53015 4.17505 4.90704 4.88403C 4.28392 5.593 3.7387 6.45952 3.34925 7.40481C 2.9598 8.35011 2.80402 9.45295 2.80402 10.5558C 2.80402 11.6586 2.9598 12.6827 3.34925 13.7068C 3.7387 14.6521 4.20603 15.5186 4.90704 16.2276C 5.53015 16.9365 6.38694 17.488 7.24372 17.9606C 8.17839 18.3545 9.26885 18.5908 10.3593 18.5908Z" transform="translate(80.6155 10.7925)" fill="white"/>
</g>
<g id="Vector_10">
<path d="M 10.3593 21.1116C 8.80151 21.1116 7.47738 20.8753 6.15326 20.3238C 4.90703 19.7724 3.81658 19.0635 2.88191 18.1182C 1.94723 17.1729 1.24623 16.07 0.778894 14.7309C 0.233668 13.4705 0 12.0525 0 10.5558C 0 9.05908 0.233668 7.64114 0.778894 6.38074C 1.32412 5.12035 2.02512 3.93873 2.88191 2.99344C 3.81658 2.04814 4.90703 1.26039 6.15326 0.787746C 7.39949 0.236324 8.80151 -1.50251e-07 10.3593 -1.50251e-07C 11.9171 -1.50251e-07 13.2412 0.236324 14.5653 0.787746C 15.8116 1.33917 16.902 2.04814 17.8367 2.99344C 18.7714 3.93873 19.4724 5.04157 19.9397 6.38074C 20.4849 7.64114 20.7186 9.05908 20.7186 10.5558C 20.7186 12.0525 20.4849 13.4705 19.9397 14.7309C 19.3945 15.9912 18.6935 17.1729 17.8367 18.1182C 16.902 19.0635 15.8116 19.8512 14.5653 20.3238C 13.3191 20.8753 11.9171 21.1116 10.3593 21.1116ZM 10.3593 18.5908C 11.5276 18.5908 12.5402 18.3545 13.4749 17.9606C 14.4096 17.5667 15.1884 16.9365 15.8116 16.2276C 16.4347 15.5186 16.9799 14.6521 17.3693 13.7068C 17.7588 12.7615 17.9146 11.6586 17.9146 10.5558C 17.9146 9.45295 17.7588 8.42888 17.3693 7.40481C 16.9799 6.45952 16.5126 5.593 15.8116 4.88403C 15.1884 4.17505 14.3317 3.62363 13.4749 3.15099C 12.5402 2.75711 11.5276 2.52079 10.3593 2.52079C 9.19096 2.52079 8.17839 2.75711 7.24372 3.15099C 6.30905 3.54486 5.53015 4.17505 4.90704 4.88403C 4.28392 5.593 3.7387 6.45952 3.34925 7.40481C 2.9598 8.35011 2.80402 9.45295 2.80402 10.5558C 2.80402 11.6586 2.9598 12.6827 3.34925 13.7068C 3.7387 14.6521 4.20603 15.5186 4.90704 16.2276C 5.53015 16.9365 6.38694 17.488 7.24372 17.9606C 8.17839 18.3545 9.26885 18.5908 10.3593 18.5908Z" transform="translate(103.203 10.7925)" fill="white"/>
</g>
<g id="Vector_11">
<path d="M 15.8894 4.17505C 15.5 4.49015 14.8769 4.41138 14.4874 4.09628C 14.0201 3.70241 13.5528 3.30853 12.9297 3.07221C 12.0729 2.67834 11.1382 2.44201 10.2814 2.44201C 9.19095 2.44201 8.10051 2.67834 7.24372 3.07221C 6.30905 3.46608 5.53015 4.09628 4.90704 4.80525C 4.28392 5.51422 3.73869 6.38074 3.42713 7.40481C 3.03768 8.42888 2.88191 9.45295 2.88191 10.6346C 2.88191 11.7374 3.03768 12.6827 3.42713 13.628C 3.73869 14.5733 4.28392 15.4398 4.90704 16.1488C 5.53015 16.8578 6.30905 17.4092 7.24372 17.8818C 8.1784 18.2757 9.19096 18.512 10.3593 18.512C 11.5276 18.512 12.5402 18.2757 13.397 17.8031C 14.0201 17.488 14.4874 17.0941 14.9548 16.5427C 15.3442 16.1488 15.8894 16.07 16.3568 16.3851L 16.902 16.8578C 17.3693 17.2516 17.4472 17.9606 17.0578 18.4333C 16.6683 18.8271 16.201 19.221 15.5779 19.6149C 14.9548 20.0087 14.1759 20.3239 13.3191 20.6389C 12.4623 20.954 11.4497 21.1116 10.2814 21.1116C 8.72362 21.1116 7.24372 20.7965 5.99749 20.1663C 4.75125 19.5361 3.6608 18.7484 2.72613 17.8031C 1.86935 16.779 1.16834 15.6761 0.701 14.4945C 0.233664 13.2341 0 11.9737 0 10.7133C 0 9.13785 0.233668 7.71991 0.778895 6.38074C 1.32412 5.04157 2.02512 3.93873 2.88191 2.99344C 3.81658 2.04814 4.90703 1.26039 6.15326 0.787746C 7.39949 0.236324 8.80151 -1.50251e-07 10.3593 -1.50251e-07C 11.6834 -1.50251e-07 12.9297 0.236324 14.2538 0.787746C 15.1106 1.10284 15.8894 1.57549 16.5126 2.20569C 16.9799 2.67834 16.9799 3.46608 16.4347 3.85996L 15.8894 4.17505Z" transform="translate(132.802 10.7925)" fill="white"/>
</g>
<g id="Vector_12">
<path d="M 2.377e-06 7.08971C 2.377e-06 6.06564 0.155779 5.19912 0.545226 4.3326C 0.934673 3.46608 1.40201 2.75711 2.02512 2.04814C 2.64824 1.41794 3.42714 0.866521 4.28392 0.551422C 5.14071 0.157549 6.07537 -6.01003e-07 7.08794 -6.01003e-07C 8.1005 -6.01003e-07 9.03518 0.157549 9.89196 0.551422C 10.7487 0.945295 11.5276 1.41794 12.1508 2.04814C 12.7739 2.67834 13.3191 3.46608 13.6307 4.3326C 14.0201 5.19912 14.1759 6.14442 14.1759 7.08971C 14.1759 8.03501 14.0201 8.98031 13.6307 9.84683C 13.2412 10.7133 12.7739 11.4223 12.1508 12.1313C 11.5276 12.7615 10.7487 13.2341 9.89196 13.628C 9.03518 14.0219 8.1005 14.1794 7.08794 14.1794C 6.07537 14.1794 5.14071 14.0219 4.28392 13.628C 3.42714 13.2341 2.64824 12.7615 2.02512 12.1313C 1.40201 11.5011 0.856784 10.7133 0.545226 9.84683C 0.155779 8.98031 2.377e-06 8.03501 2.377e-06 7.08971ZM 2.64824 7.08971C 2.64824 7.79869 2.72614 8.42888 2.9598 8.98031C 3.19347 9.53173 3.42713 10.0831 3.81658 10.477C 4.20603 10.8709 4.67337 11.186 5.21859 11.4223C 5.76382 11.6586 6.38693 11.8162 7.08794 11.8162C 7.78894 11.8162 8.41206 11.6586 8.95729 11.4223C 9.50252 11.186 9.96986 10.8709 10.3593 10.477C 10.7487 10.0831 11.0603 9.6105 11.2161 8.98031C 11.4497 8.42888 11.5276 7.79869 11.5276 7.08971C 11.5276 6.38074 11.4497 5.75055 11.2161 5.19912C 10.9824 4.6477 10.7487 4.09628 10.3593 3.70241C 9.96986 3.30853 9.50252 2.99343 8.95729 2.75711C 8.41206 2.52079 7.78894 2.36324 7.08794 2.36324C 6.38693 2.36324 5.76382 2.52079 5.21859 2.75711C 4.67337 2.99343 4.20603 3.30853 3.81658 3.70241C 3.42713 4.09628 3.11558 4.56893 2.9598 5.19912C 2.80403 5.75055 2.64824 6.38074 2.64824 7.08971Z" transform="translate(151.729 17.5669)" fill="white"/>
</g>
<g id="Vector_13">
<path d="M 0 1.89059C 0 1.33917 0.155777 0.945295 0.545224 0.551422C 0.934671 0.157549 1.32412 -1.50251e-07 1.86934 -1.50251e-07C 2.41457 -1.50251e-07 2.80402 0.157549 3.19347 0.551422C 3.58292 0.945295 3.7387 1.33917 3.7387 1.89059C 3.7387 2.44201 3.58292 2.83589 3.19347 3.22976C 2.80402 3.62363 2.41457 3.78118 1.86934 3.78118C 1.32412 3.78118 0.934671 3.62363 0.545224 3.22976C 0.155777 2.83589 0 2.36324 0 1.89059ZM 1.86934 6.69584C 2.57035 6.69584 3.11558 7.24726 3.11558 7.95624L 3.11558 18.9059C 3.11558 19.6149 2.57035 20.1663 1.86934 20.1663C 1.16834 20.1663 0.623118 19.6149 0.623118 18.9059L 0.623118 7.95624C 0.545229 7.24726 1.16834 6.69584 1.86934 6.69584Z" transform="translate(167.852 11.186)" fill="white"/>
</g>
<g id="Vector_14">
<path d="M 1.17576 0.315099C 1.87676 0.315099 2.422 0.86652 2.422 1.57549L 2.422 2.36324L 2.49988 2.36324C 2.81144 1.65427 3.35667 1.02407 4.13556 0.630197C 4.91446 0.157549 5.84913 -6.01003e-07 6.86169 -6.01003e-07C 7.48481 -6.01003e-07 8.10792 0.0787752 8.73103 0.315099C 9.35415 0.551423 9.82149 0.787746 10.2888 1.26039C 10.7562 1.65427 11.0677 2.20569 11.3793 2.83589C 11.613 3.46608 11.7687 4.25383 11.7687 5.12035L 11.7687 12.5252C 11.7687 13.2341 11.2235 13.7856 10.5225 13.7856C 9.82149 13.7856 9.27627 13.2341 9.27627 12.5252L 9.27627 5.82932C 9.27627 5.19912 9.19838 4.6477 9.0426 4.25383C 8.88682 3.78118 8.65314 3.46608 8.34159 3.15098C 8.03003 2.91466 7.71847 2.67834 7.40692 2.52079C 7.01747 2.36324 6.62802 2.36324 6.23857 2.36324C 5.69335 2.36324 5.22602 2.44201 4.75868 2.59956C 4.29134 2.75711 3.9019 3.07221 3.59034 3.38731C 3.27878 3.78118 2.96722 4.25383 2.81144 4.80525C 2.65566 5.35667 2.49988 6.06564 2.49988 6.85339L 2.49988 12.5252C 2.49988 13.2341 1.95466 13.7856 1.25365 13.7856C 0.552649 13.7856 0.00741806 13.2341 0.00741806 12.5252L 0.00741806 1.57549C -0.0704714 0.86652 0.474755 0.315099 1.17576 0.315099Z" transform="translate(174.231 17.5669)" fill="white"/>
</g>
</g>
</g>
</g>
</svg>

