<svg width="696" height="373" viewBox="0 0 696 373" fill="none" xmlns="http://www.w3.org/2000/svg">
    <path id="Vector" d="M14.4549 17.3349C18.4951 13.3294 18.4951 6.92059 14.4549 3.00411C10.4147 -1.00138 3.9504 -1.00138 0 3.00411L14.4549 17.3349Z" transform="translate(150.518 340.741)" fill="#F6D0E6"/>
    <path id="Vector_2" d="M-2.18261e-05 12.4667C3.48656 17.5425 10.3704 18.8782 15.5555 15.4944C20.6513 12.0215 21.9923 5.16479 18.5951 5.43506e-06L-2.18261e-05 12.4667Z" transform="translate(593.977 147.966)" fill="#3FA9F5"/>
    <path id="Vector_3" d="M3.3571 1.77778e-06C-0.024962 2.15541 -1.01626 6.641 1.14127 10.078C3.29879 13.4568 7.78877 14.4471 11.2291 12.2917L3.3571 1.77778e-06Z" transform="translate(58.7186 106.255)" fill="#3FA9F5"/>
    <path id="Vector_4" d="M5.14693 -1.08701e-05C-0.0382498 3.29477 -1.55809 10.1515 1.7497 15.4053C5.05748 20.5701 11.9413 22.0839 17.2159 18.7891L5.14693 -1.08701e-05Z" transform="translate(529.267 288.307)" fill="#F6D0E6"/>
    <path id="Vector_5" d="M9.87601 15.3989L5.47985e-06 5.6967L9.87601 5.4328e-06L19.752 9.7022L9.87601 15.3989Z" transform="translate(96.7391 312.413)" fill="#EC148E"/>
    <path id="Vector_6" d="M9.29755 3.11668L8.13536 13.7134L2.18261e-05 10.5967L1.07277 -2.71753e-06L9.29755 3.11668Z" transform="translate(651.461 95.072)" fill="#FF931E"/>
    <path id="Vector_7" d="M12.4797 1.33516L14.6344 16.378L2.24455 14.9538L5.47985e-06 0L12.4797 1.33516Z" transform="translate(129.061 263.368)" fill="#6D02D5"/>
    <path id="Vector_8" d="M12.4265 1.33572L14.5722 16.3848L2.23497 14.9601L-2.18261e-05 0L12.4265 1.33572Z" transform="translate(617 229)" fill="#6D02D5"/>
    <path id="Vector_9" d="M9.65517 3.47287L8.04598 18.522L2.18261e-05 15.0491L1.6092 -6.79382e-07L9.65517 3.47287Z" transform="translate(530.771 23.4774)" fill="#F381AB"/>
    <path id="Vector_10" d="M12.4902 -2.72314e-06H-1.08906e-05V12.4924H12.4902V-2.72314e-06Z" transform="translate(511 258.01) scale(1.00199 0.998058) rotate(-46.2712)" fill="#6D02D5"/>
    <path id="Vector_11" d="M10.1915 0H-2.18261e-05V10.1515H10.1915V0Z" transform="translate(624.867 28.7581) rotate(0.699063)" fill="#6D02D5"/>
    <path id="Vector_12" d="M11.4828 1.08745e-05H0V11.4028H11.4828V1.08745e-05Z" transform="matrix(0.952469 0.304808 -0.309606 0.95092 60.0033 246.966)" fill="#F381AB"/>
    <path id="Vector_13" d="M10.4331 0H2.7213e-06V10.4858H10.4331V0Z" transform="matrix(0.458818 0.888497 -0.891685 0.452592 216.213 358.984)" fill="#FF7BAC"/>
    <path id="Vector_14" d="M10.4331 5.47011e-06H2.7213e-06V10.4858H10.4331V5.47011e-06Z" transform="matrix(0.458818 0.888497 -0.891685 0.452592 80.2167 343.563)" fill="#FF1D25"/>
    <path id="Vector_15" d="M7.50383 -5.43924e-06H0V7.48579H7.50383V-5.43924e-06Z" transform="matrix(0.898286 0.439502 -0.442301 0.896911 15.311 125.356)" fill="#F381AB"/>
    <path id="Vector_16" d="M6.05992 2.72618e-06H0V6.07453H6.05992V2.72618e-06Z" transform="matrix(0.442301 -0.896911 0.898286 0.439502 79.1306 108.619)" fill="#FF1D25"/>
    <path id="Vector_17" d="M8.7567 2.71892e-06H5.45374e-06V8.73118H8.7567V2.71892e-06Z" transform="matrix(0.933475 -0.358667 0.361136 0.932522 122.35 100.441)" fill="#F381AB"/>
    <path id="Vector_18" d="M9.92335 4.36335L4.55937 10.1515L2.72826e-06 5.78812L4.46998 -2.71753e-06L9.92335 4.36335Z" transform="translate(147.113 63.1997)" fill="#3FA9F5"/>
    <path id="Vector_19" d="M8.22179 0H-2.72727e-06V8.28448H8.22179V0Z" transform="matrix(0.953244 -0.302216 0.304387 0.952553 171.453 2.48477)" fill="#FF931E"/>
    <path id="Vector_20" d="M8.31415 10.9529L5.45652e-06 8.28147L2.68199 -3.39691e-07L8.31415 10.9529Z" transform="translate(212.643 18.8537)" fill="#F1F1F1"/>
    <path id="Vector_21" d="M-1.0913e-05 8.45956L2.23498 0L10.7279 2.31525L-1.0913e-05 8.45956Z" transform="translate(389 363.374)" fill="#EC148E"/>
    <path id="Vector_22" d="M8.78479 0H2.73562e-06V8.737H8.78479V0Z" transform="matrix(0.904923 0.425689 -0.431723 0.902059 61.4814 297.546)" fill="#FF931E"/>
    <path id="Vector_23" d="M2.72826e-06 6.41146L6.43677 6.14431L6.97316 6.79382e-07L16.7177 10.4186L9.65515 16.9191L2.72826e-06 6.41146Z" transform="translate(65.7594 35.1496)" fill="#FF931E"/>
    <path id="Vector_24" d="M6.34736 -1.35876e-06L8.93995 5.96622L14.9297 4.27431L8.49295 17.0082L-1.0913e-05 12.7339L6.34736 -1.35876e-06Z" transform="translate(467.208 52.2399)" fill="#FF931E"/>
    <path id="Vector_25" d="M4.55936 2.71753e-06L6.34735 4.09621L10.5491 2.93858L5.98978 11.9324L0 8.9048L4.55936 2.71753e-06Z" transform="translate(684.628 85.3657)" fill="#FF1D25"/>
    <path id="Vector_26" d="M4.73818 15.2272L5.90037 8.90481L0 6.94574L12.5159 5.43506e-06L17.1647 8.28146L4.73818 15.2272Z" transform="translate(17.4329 226.226)" fill="#FF931E"/>
    <path id="Vector_27" d="M4.64878 2.71753e-06L-5.45652e-06 3.11668L12.8735 8.01432L10.9961 2.4043L4.64878 2.71753e-06Z" transform="translate(185.197 76.2007)" fill="#F6D0E6"/>
    <path id="Vector_28" d="M-5.45652e-06 -2.71753e-06L1.78799 5.61003L8.22477 8.01432L6.34737 2.4043L-5.45652e-06 -2.71753e-06Z" transform="translate(199.054 69.8783)" fill="#F6D0E6"/>
    <path id="Vector_29" d="M0 3.20573L1.78799 8.72671L3.66539 14.3367L8.22477 11.22L4.64878 -1.35877e-06L0 3.20573Z" transform="translate(203.614 63.5559)" fill="#EF9ACE"/>
    <path id="Vector_30" d="M-2.72826e-06 3.20573L1.78799 8.72671L3.66539 14.3367L8.22476 11.131L6.43677 5.61003L4.64877 -2.71753e-06L-2.72826e-06 3.20573Z" transform="translate(194.405 69.8783)" fill="#EF9ACE"/>
    <path id="Vector_31" d="M6.34737 -5.43506e-06L0 1.51382L11.9795 12.0215L12.3371 5.25382L6.34737 -5.43506e-06Z" transform="translate(0 279.477)" fill="#F6D0E6"/>
    <path id="Vector_32" d="M0.357598 -5.43506e-06L-3.41032e-07 6.76765L5.98977 12.1105L6.34737 5.25382L0.357598 -5.43506e-06Z" transform="translate(18.6844 276.36)" fill="#F6D0E6"/>
    <path id="Vector_33" d="M0.715196 1.51382L0.357598 8.3705L3.41032e-07 15.2272L6.34737 13.6244L7.06257 -5.43506e-06L0.715196 1.51382Z" transform="translate(24.6744 273.244)" fill="#EF9ACE"/>
    <path id="Vector_34" d="M0.715196 1.51382L0.357598 8.3705L-3.41032e-07 15.1382L6.34737 13.6244L6.70497 6.76765L7.06257 -5.43506e-06L0.715196 1.51382Z" transform="translate(11.9796 276.36)" fill="#EF9ACE"/>
    <path id="Vector_35" d="M7.81102 4.71759L3.32193 0L-2.73992e-06 15.5769L6.10517 12.4615L7.81102 4.71759Z" transform="translate(47 157)" fill="#F6D0E6"/>
    <path id="Vector_36" d="M7.81102 -5.4328e-06L1.61607 3.11538L-2.73992e-06 10.8593L6.19495 7.83296L7.81102 -5.4328e-06Z" transform="translate(55.9781 171.153)" fill="#F6D0E6"/>
    <path id="Vector_37" d="M12.3001 -2.7164e-06L6.19495 3.11538L-2.73992e-06 6.14176L4.48909 10.8593L16.7892 4.71758L12.3001 -2.7164e-06Z" transform="translate(55.9783 175.87)" fill="#EF9ACE"/>
    <path id="Vector_38" d="M12.3001 5.4328e-06L6.10517 3.02637L-2.73992e-06 6.14176L4.48909 10.8593L10.5943 7.83296L16.7892 4.71758L12.3001 5.4328e-06Z" transform="translate(47.0001 166.435)" fill="#EF9ACE"/>
    <path id="Vector_39" d="M12.0689 5.69908L16.0025 0.534291L-1.0913e-05 -2.71753e-06L4.1124 5.43193L12.0689 5.69908Z" transform="translate(587.711 46)" fill="#F6D0E6"/>
    <path id="Vector_40" d="M12.1583 5.69908L8.04596 0.267141L0 -5.43506e-06L4.11236 5.43193L12.1583 5.69908Z" transform="translate(579.844 56.4186)" fill="#F6D0E6"/>
    <path id="Vector_41" d="M12.069 10.9529L7.95654 5.43193L3.84418 -5.43506e-06L1.0913e-05 5.16478L8.13535 16.2067L12.069 10.9529Z" transform="translate(576 56.4186)" fill="#EF9ACE"/>
    <path id="Vector_42" d="M12.069 10.9529L8.04598 5.43193L3.93357 -2.71753e-06L2.18261e-05 5.16479L4.11238 10.6858L8.22474 16.1177L12.069 10.9529Z" transform="translate(583.778 46)" fill="#EF9ACE"/>
    <path id="Vector_43" d="M6.52618 -5.43506e-06H2.18261e-05L9.20817 13.0901L11.175 6.50052L6.52618 -5.43506e-06Z" transform="translate(565.363 244.306)" fill="#F6D0E6"/>
    <path id="Vector_44" d="M1.87738 -1.08701e-05L1.0913e-05 6.58956L4.55937 13.1791L6.52617 6.58956L1.87738 -1.08701e-05Z" transform="translate(583.064 244.214)" fill="#F6D0E6"/>
    <path id="Vector_45" d="M3.93359 -1.08701e-05L1.96679 6.58956L-1.0913e-05 13.1791L6.52615 13.0901L10.4597 -1.08701e-05H3.93359Z" transform="translate(587.623 244.214)" fill="#EF9ACE"/>
    <path id="Vector_46" d="M3.84418 0.0890426L1.96681 6.58956L1.0913e-05 13.1791H6.52617L8.49297 6.58956L10.3703 -1.08701e-05L3.84418 0.0890426Z" transform="translate(574.571 244.214)" fill="#EF9ACE"/>
    <path id="Vector_47" d="M7.58404 -5.4458e-06H0V7.58403H7.58404V-5.4458e-06Z" transform="translate(575.971 319.746) scale(1.00196 0.998018) rotate(45)" fill="#EC148E"/>
    <path id="Vector_48" d="M15.5555 0.890477L12.3372 7.39099L2.18261e-05 5.25384L3.03957 -2.71753e-06L15.5555 0.890477Z" transform="translate(581.455 198.265)" fill="#FF1D25"/>
    <path id="Vector_49" d="M7.58404 -5.4458e-06H0V7.58403H7.58404V-5.4458e-06Z" transform="translate(540.212 348.242) scale(1.00196 0.998018) rotate(45)" fill="#FF1D25"/>
    <path id="Vector_50" d="M7.58404 -5.4458e-06H0V7.58403H7.58404V-5.4458e-06Z" transform="translate(423.39 330.091) scale(1.00196 0.998018) rotate(45)" fill="#D91701"/>
    <path id="Vector_51" d="M11.7547 5.45637e-06H1.08704e-05V11.8004H11.7547V5.45637e-06Z" transform="matrix(0.082966 0.996573 -0.996627 0.0823192 510.105 298)" fill="#6D02D5"/>
    <path id="Vector_52" d="M7.57116 2.72752e-06H1.08731e-05V7.59691H7.57116V2.72752e-06Z" transform="matrix(0.263665 0.964637 -0.965162 0.261738 551.831 97.4597)" fill="#FF931E"/>
    <path id="Vector_53" d="M7.57113 0H-2.17462e-05V7.59691H7.57113V0Z" transform="matrix(0.263665 0.964637 -0.965162 0.261738 619.332 95)" fill="#D91701"/>
    <path id="Vector_54" d="M7.57116 0H1.08731e-05V7.59691H7.57116V0Z" transform="matrix(0.263665 0.964637 -0.965162 0.261738 362.474 23.889)" fill="#FF1D25"/>
    <path id="Vector_55" d="M7.57115 0H5.43654e-06V7.59691H7.57115V0Z" transform="matrix(0.263665 0.964637 -0.965162 0.261738 470.332 9.00003)" fill="#F6D0E6"/>
    <path id="Vector_56" d="M16.4495 4.18525L10.9962 7.74717L13.6781 13.2682L2.18261e-05 9.08289L2.86076 1.08701e-05L16.4495 4.18525Z" transform="translate(590.842 278.854)" fill="#FF931E"/>
</svg>
