<svg width="48px" height="55px" viewBox="0 0 48 55" version="1.1" xmlns="http://www.w3.org/2000/svg" xmlns:xlink="http://www.w3.org/1999/xlink">
    <g id="Social-Icons" stroke="none" stroke-width="1" fill="none" fill-rule="evenodd">
        <g id="Discord-Logo-Color" fill-rule="nonzero" fill="#7289DA">
            <path d="M18.9878404,22.8883107 C17.4283204,22.8883107 16.1971204,24.252334 16.1971204,25.9164424 C16.1971204,27.5805508 17.4556804,28.9445741 18.9878404,28.9445741 C20.5473605,28.9445741 21.7785605,27.5805508 21.7785605,25.9164424 C21.8059205,24.252334 20.5473605,22.8883107 18.9878404,22.8883107 Z M28.9742406,22.8883107 C27.4147206,22.8883107 26.1835206,24.252334 26.1835206,25.9164424 C26.1835206,27.5805508 27.4420806,28.9445741 28.9742406,28.9445741 C30.5337607,28.9445741 31.7649607,27.5805508 31.7649607,25.9164424 C31.7649607,24.252334 30.5337607,22.8883107 28.9742406,22.8883107 Z" id="Shape"></path>
            <path d="M42.2712009,0 L5.60880013,0 C2.51712006,0 0,2.50980285 0,5.61977594 L0,42.5029656 C0,45.6129387 2.51712006,48.1227415 5.60880013,48.1227415 L36.6350408,48.1227415 L35.1849608,43.0758554 L38.6870409,46.3222308 L41.9976009,49.377643 L47.8800011,54.5609314 L47.8800011,5.61977594 C47.8800011,2.50980285 45.362881,0 42.2712009,0 Z M31.7102407,35.6282882 C31.7102407,35.6282882 30.7252807,34.4552282 29.9044807,33.4185705 C33.4886407,32.4091933 34.8566408,30.1721951 34.8566408,30.1721951 C33.7348808,30.9087677 32.6678407,31.4270965 31.7102407,31.7817426 C30.3422407,32.3546323 29.0289606,32.7365589 27.7430406,32.9548026 C25.1164806,33.445851 22.7088005,33.3094487 20.6568005,32.9275221 C19.0972804,32.627437 17.7566404,32.1909496 16.6348804,31.7544621 C16.0056004,31.5089379 15.3216003,31.2088528 14.6376003,30.8269263 C14.5555203,30.7723653 14.4734403,30.7450849 14.3913603,30.6905239 C14.3366403,30.6632435 14.3092803,30.635963 14.2819203,30.6086825 C13.7894403,30.3358779 13.5158403,30.1449146 13.5158403,30.1449146 C13.5158403,30.1449146 14.8291203,32.3273519 18.3038404,33.3640096 C17.4830404,34.4006673 16.4707204,35.6282882 16.4707204,35.6282882 C10.4241602,35.437325 8.12592018,31.4816574 8.12592018,31.4816574 C8.12592018,22.6973475 12.0657603,15.5771459 12.0657603,15.5771459 C16.0056004,12.6308556 19.7539204,12.712697 19.7539204,12.712697 L20.0275204,13.0400626 C15.1027203,14.4586468 12.8318403,16.6138036 12.8318403,16.6138036 C12.8318403,16.6138036 13.4337603,16.286438 14.4460803,15.8226701 C17.3736004,14.5404882 19.6992004,14.1858422 20.6568005,14.1040008 C20.8209605,14.0767203 20.9577605,14.0494398 21.1219205,14.0494398 C22.7908805,13.8311961 24.6787206,13.7766352 26.6486406,13.9948789 C29.2478407,14.294964 32.0385607,15.0588171 34.8840008,16.6138036 C34.8840008,16.6138036 32.7225607,14.5677687 28.0713606,13.1491845 L28.4544006,12.712697 C28.4544006,12.712697 32.2027207,12.6308556 36.1425608,15.5771459 C36.1425608,15.5771459 40.0824009,22.6973475 40.0824009,31.4816574 C40.0824009,31.4816574 37.7568008,35.437325 31.7102407,35.6282882 L31.7102407,35.6282882 Z" id="Shape"></path>
        </g>
    </g>
</svg>