<svg width="142" height="34" viewBox="0 0 142 34" fill="none" xmlns="http://www.w3.org/2000/svg">
<path d="M18.5387 4.31026L14.3417 0C14.0638 0.113428 13.8137 0.28357 13.5913 0.482068L0.4725 13.8666C0.250147 14.0934 0.0833823 14.3486 0 14.6322L4.2247 18.9425L18.5387 4.31026Z" transform="translate(0.138977 0.141785)" fill="#F5437E"/>
<path d="M9.31102 8.42202L13.2022 4.45204L8.83852 0L4.33588 4.59383L0 9.04587H7.83793C8.36602 9.04587 8.9219 8.81902 9.31102 8.42202Z" transform="translate(10.2838 24.9541)" fill="url(#paint0_linear)"/>
<path d="M9.76267 6.41576C9.79047 5.45163 8.84547 4.57256 8.42856 4.17556L4.75974 0.404087C4.23165 -0.134696 3.34224 -0.134696 2.81415 0.404087L0.396066 2.87114C-0.132022 3.40992 -0.132022 4.31735 0.396066 4.85613L5.399 9.96038L9.76267 14.4124V6.41576Z" transform="translate(13.7233 14.9937)" fill="#F5437E"/>
<path d="M4.36367 4.31026L0.13897 -4.32693e-07C0.0555882 0.226855 0 0.482069 0 0.737281V7.82652C0 8.39366 0.222353 8.93244 0.61147 9.3578L10.2838 19.226L14.6475 14.774L4.36367 4.31026Z" transform="translate(0 14.774)" fill="url(#paint1_linear)"/>
<path d="M17.4269 9.04587L9.17205 0.623853C8.78293 0.226856 8.25485 0 7.69896 0H0.75044C0.500293 0 0.250146 0.0567139 -4.24104e-07 0.141785L4.2247 4.45204L14.4251 14.859L18.6498 10.5488C18.5109 10.2369 17.6492 9.27273 17.4269 9.04587Z" transform="translate(14.4807)" fill="url(#paint2_linear)"/>
<path d="M6.95547 0.737281C6.95547 0.482068 6.89988 0.226856 6.8165 2.16346e-07L2.5918 4.31026L0.396066 6.5221C-0.132022 7.06088 -0.132022 7.96831 0.396066 8.50709L2.81415 10.9741C3.34224 11.5129 4.23165 11.5129 4.75974 10.9741L6.48297 9.21601C6.76091 8.93244 6.92768 8.50709 6.92768 8.11009L6.95547 0.737281Z" transform="translate(26.2863 10.5488)" fill="#F5437E"/>
<path d="M15.6759 9.66972V16.6739C14.7865 17.3261 13.8137 17.8365 12.7853 18.1485C11.7569 18.4887 10.6451 18.6305 9.42219 18.6305C7.9769 18.6305 6.67058 18.4037 5.53102 17.95C4.36367 17.4962 3.39088 16.8724 2.55706 16.05C1.72323 15.2277 1.11176 14.2352 0.667056 13.1009C0.222351 11.9666 0 10.6906 0 9.32944C0 7.93995 0.222354 6.66389 0.639265 5.52961C1.05618 4.39533 1.66764 3.40284 2.47367 2.58048C3.25191 1.75813 4.2247 1.13428 5.36426 0.680567C6.50382 0.226855 7.75455 -1.08173e-07 9.17205 -1.08173e-07C9.8669 -1.08173e-07 10.534 0.0567139 11.1454 0.170142C11.7569 0.28357 12.3128 0.425355 12.8409 0.623853C13.369 0.822352 13.8415 1.07756 14.2862 1.36113C14.7309 1.6447 15.1478 1.95663 15.5091 2.32527L14.8143 3.45955C14.7031 3.62969 14.5641 3.74312 14.3973 3.77148C14.2306 3.82819 14.036 3.77148 13.8415 3.65805C13.6469 3.54462 13.4245 3.40284 13.1466 3.23269C12.8965 3.06255 12.5629 2.89241 12.2016 2.75063C11.8403 2.58048 11.3956 2.46706 10.8953 2.35363C10.395 2.2402 9.78352 2.18349 9.11646 2.18349C8.11588 2.18349 7.19867 2.35363 6.39264 2.69391C5.58661 3.0342 4.89176 3.51626 4.30808 4.14012C3.72441 4.76397 3.2797 5.52961 2.97397 6.40867C2.66823 7.28774 2.50147 8.28023 2.50147 9.38615C2.50147 10.5204 2.66823 11.5696 2.97397 12.4487C3.3075 13.3561 3.7522 14.1218 4.33588 14.7456C4.91956 15.3695 5.6422 15.8515 6.50382 16.1918C7.36543 16.5321 8.31043 16.7023 9.36661 16.7023C10.2004 16.7023 10.9509 16.6172 11.5901 16.4187C12.2294 16.2202 12.8687 15.965 13.4801 15.6247V11.5413H10.7007C10.534 11.5413 10.4228 11.4846 10.3116 11.3995C10.2282 11.3144 10.1726 11.201 10.1726 11.0592V9.66972H15.6759Z" transform="translate(44.0536 7.76981)" fill="white"/>
<path d="M2.02897 2.80734C2.41808 1.92827 2.91838 1.24771 3.50206 0.737281C4.08573 0.226856 4.80838 -4.32693e-07 5.6422 -4.32693e-07C5.92014 -4.32693e-07 6.17029 0.0283574 6.42043 0.0850713C6.67058 0.141785 6.89293 0.226856 7.08749 0.368641L6.92073 2.07006C6.86514 2.26856 6.75396 2.38198 6.55941 2.38198C6.44823 2.38198 6.28146 2.35363 6.05911 2.29691C5.83676 2.2402 5.58661 2.21184 5.30867 2.21184C4.91955 2.21184 4.55823 2.26856 4.25249 2.38198C3.94676 2.49541 3.66882 2.66556 3.41867 2.92077C3.16853 3.14762 2.94617 3.43119 2.75162 3.79983C2.55706 4.14012 2.39029 4.53711 2.22353 4.99083V13.1576H-1.69642e-06V0.226856H1.27853C1.52867 0.226856 1.69544 0.28357 1.77882 0.368641C1.8622 0.453712 1.94559 0.623853 1.97338 0.850709L2.02897 2.80734Z" transform="translate(62.7869 13.0726)" fill="white"/>
<path d="M6.05911 2.16346e-07C6.97632 2.16346e-07 7.81014 0.170142 8.56058 0.482069C9.31102 0.793995 9.92249 1.24771 10.4506 1.81485C10.9787 2.38198 11.3678 3.09091 11.6457 3.91326C11.9237 4.73561 12.0626 5.64303 12.0626 6.66389C12.0626 7.68474 11.9237 8.59216 11.6457 9.41451C11.3678 10.2369 10.9787 10.9174 10.4506 11.5129C9.92249 12.0801 9.28323 12.5338 8.56058 12.8457C7.81014 13.1576 6.97632 13.2994 6.05911 13.2994C5.11411 13.2994 4.28029 13.1576 3.52985 12.8457C2.77941 12.5338 2.14015 12.0801 1.61206 11.5129C1.08397 10.9458 0.694853 10.2369 0.416912 9.41451C0.138971 8.59216 8.48208e-07 7.68474 8.48208e-07 6.66389C8.48208e-07 5.64303 0.138971 4.73561 0.416912 3.91326C0.694853 3.09091 1.08397 2.38198 1.61206 1.81485C2.14015 1.24771 2.77941 0.793995 3.52985 0.482069C4.30808 0.170142 5.14191 2.16346e-07 6.05911 2.16346e-07ZM6.05911 11.5129C7.30985 11.5129 8.22705 11.0876 8.86632 10.2369C9.47779 9.38616 9.78352 8.19516 9.78352 6.66389C9.78352 5.13261 9.47779 3.94162 8.86632 3.06255C8.25485 2.21184 7.30985 1.78649 6.05911 1.78649C5.41985 1.78649 4.86397 1.89992 4.39147 2.12677C3.91897 2.35363 3.52985 2.66555 3.22411 3.09091C2.91838 3.51626 2.66823 4.02669 2.52926 4.62218C2.3625 5.21768 2.30691 5.92661 2.30691 6.69224C2.30691 8.22352 2.61264 9.41451 3.22411 10.2652C3.86338 11.0876 4.80838 11.5129 6.05911 11.5129Z" transform="translate(70.5414 13.1009)" fill="white"/>
<path d="M6.05911 2.16346e-07C6.97632 2.16346e-07 7.81014 0.170142 8.56058 0.482069C9.31102 0.793995 9.92249 1.24771 10.4506 1.81485C10.9787 2.38198 11.3678 3.09091 11.6457 3.91326C11.9237 4.73561 12.0626 5.64303 12.0626 6.66389C12.0626 7.68474 11.9237 8.59216 11.6457 9.41451C11.3678 10.2369 10.9787 10.9174 10.4506 11.5129C9.92249 12.0801 9.28323 12.5338 8.56058 12.8457C7.81014 13.1576 6.97632 13.2994 6.05911 13.2994C5.11411 13.2994 4.28029 13.1576 3.52985 12.8457C2.77941 12.5338 2.14015 12.0801 1.61206 11.5129C1.08397 10.9458 0.694849 10.2369 0.416908 9.41451C0.138967 8.59216 -3.39283e-06 7.68474 -3.39283e-06 6.66389C-3.39283e-06 5.64303 0.138967 4.73561 0.416908 3.91326C0.694849 3.09091 1.08397 2.38198 1.61206 1.81485C2.14015 1.24771 2.77941 0.793995 3.52985 0.482069C4.28029 0.170142 5.11411 2.16346e-07 6.05911 2.16346e-07ZM6.05911 11.5129C7.30985 11.5129 8.22705 11.0876 8.86632 10.2369C9.47779 9.38616 9.78352 8.19516 9.78352 6.66389C9.78352 5.13261 9.47779 3.94162 8.86632 3.06255C8.25485 2.21184 7.30985 1.78649 6.05911 1.78649C5.41985 1.78649 4.86397 1.89992 4.39147 2.12677C3.91897 2.35363 3.52985 2.66555 3.22411 3.09091C2.91838 3.51626 2.66823 4.02669 2.52926 4.62218C2.3625 5.21768 2.30691 5.92661 2.30691 6.69224C2.30691 8.22352 2.61264 9.41451 3.22411 10.2652C3.83558 11.0876 4.78058 11.5129 6.05911 11.5129Z" transform="translate(84.7164 13.1009)" fill="white"/>
<path d="M9.56117 2.52377C9.50558 2.60884 9.42219 2.69391 9.36661 2.75063C9.31102 2.80734 9.19984 2.8357 9.08867 2.8357C8.97749 2.8357 8.83852 2.77898 8.67175 2.66555C8.53278 2.55213 8.33822 2.4387 8.11587 2.32527C7.89352 2.21184 7.61558 2.07006 7.30984 1.98499C6.97632 1.87156 6.5872 1.81485 6.1425 1.81485C5.53103 1.81485 4.97514 1.92827 4.50264 2.15513C4.03014 2.38199 3.64103 2.69391 3.3075 3.11927C2.97397 3.54462 2.75161 4.05505 2.58485 4.65054C2.41808 5.24604 2.3347 5.9266 2.3347 6.66389C2.3347 7.45788 2.41808 8.13845 2.58485 8.73394C2.75161 9.32944 3.00176 9.83987 3.33529 10.2652C3.66882 10.6906 4.03014 11.0025 4.50264 11.201C4.94734 11.4279 5.47543 11.5129 6.03131 11.5129C6.5594 11.5129 7.00411 11.4562 7.36544 11.3144C7.72676 11.1726 8.0047 11.0309 8.22705 10.8891C8.44941 10.7189 8.64396 10.5771 8.81072 10.4637C8.97749 10.3219 9.11646 10.2652 9.25543 10.2652C9.44999 10.2652 9.58896 10.3503 9.67234 10.4921L10.2838 11.3144C10.0059 11.6547 9.70014 11.9666 9.33882 12.1935C8.9775 12.4487 8.61617 12.6472 8.19926 12.8173C7.78235 12.9875 7.36543 13.1009 6.92073 13.186C6.47602 13.2711 6.03132 13.2994 5.55882 13.2994C4.78059 13.2994 4.03015 13.1576 3.36309 12.8457C2.69603 12.5621 2.08455 12.1084 1.58426 11.5413C1.08397 10.9741 0.694854 10.2936 0.416913 9.47123C0.138972 8.64887 1.69642e-06 7.71309 1.69642e-06 6.66389C1.69642e-06 5.69975 0.13897 4.82068 0.389117 3.99833C0.639264 3.17598 1.02838 2.46706 1.52868 1.89992C2.02897 1.30442 2.64043 0.850709 3.39088 0.510426C4.14132 0.170142 4.97514 -4.32693e-07 5.92014 -4.32693e-07C6.80955 -4.32693e-07 7.58778 0.141784 8.28264 0.425354C8.9497 0.708924 9.56117 1.13428 10.0893 1.67306L9.56117 2.52377Z" transform="translate(98.8358 13.0726)" fill="white"/>
<path d="M6.05911 2.16346e-07C6.97632 2.16346e-07 7.81014 0.170142 8.56058 0.482069C9.31102 0.793995 9.92249 1.24771 10.4506 1.81485C10.9787 2.38198 11.3678 3.09091 11.6457 3.91326C11.9237 4.73561 12.0626 5.64303 12.0626 6.66389C12.0626 7.68474 11.9237 8.59216 11.6457 9.41451C11.3678 10.2369 10.9787 10.9174 10.4506 11.5129C9.92249 12.0801 9.28323 12.5338 8.56058 12.8457C7.81014 13.1576 6.97632 13.2994 6.05911 13.2994C5.11411 13.2994 4.28029 13.1576 3.52985 12.8457C2.77941 12.5338 2.14015 12.0801 1.61206 11.5129C1.08397 10.9458 0.694849 10.2369 0.416908 9.41451C0.138967 8.59216 -3.39283e-06 7.68474 -3.39283e-06 6.66389C-3.39283e-06 5.64303 0.138967 4.73561 0.416908 3.91326C0.694849 3.09091 1.08397 2.38198 1.61206 1.81485C2.14015 1.24771 2.77941 0.793995 3.52985 0.482069C4.28029 0.170142 5.14191 2.16346e-07 6.05911 2.16346e-07ZM6.05911 11.5129C7.30985 11.5129 8.22705 11.0876 8.86632 10.2369C9.47779 9.38616 9.78352 8.19516 9.78352 6.66389C9.78352 5.13261 9.47779 3.94162 8.86632 3.06255C8.25485 2.21184 7.30985 1.78649 6.05911 1.78649C5.41985 1.78649 4.86397 1.89992 4.39147 2.12677C3.91897 2.35363 3.52985 2.66555 3.22411 3.09091C2.91838 3.51626 2.66823 4.02669 2.52926 4.62218C2.3625 5.21768 2.30691 5.92661 2.30691 6.69224C2.30691 8.22352 2.61264 9.41451 3.22411 10.2652C3.86338 11.0876 4.80838 11.5129 6.05911 11.5129Z" transform="translate(110.565 13.1009)" fill="white"/>
<path d="M3.16853 1.58799C3.16853 1.81485 3.11294 2.01334 3.02956 2.21184C2.94617 2.41034 2.835 2.58048 2.66824 2.72227C2.52927 2.86405 2.3625 2.97748 2.16794 3.06255C1.97338 3.14762 1.77883 3.17598 1.55647 3.17598C1.33412 3.17598 1.13956 3.14762 0.944999 3.06255C0.75044 2.97748 0.583679 2.86405 0.444709 2.72227C0.305738 2.58048 0.194559 2.41034 0.111176 2.21184C0.0277941 2.01334 1.69642e-06 1.81485 1.69642e-06 1.58799C1.69642e-06 1.36113 0.0277941 1.16264 0.111176 0.964137C0.194559 0.765638 0.305738 0.595496 0.444709 0.453712C0.583679 0.311927 0.75044 0.198499 0.944999 0.113428C1.13956 0.0283569 1.33412 0 1.55647 0C1.77883 0 1.97338 0.0567138 2.16794 0.113428C2.3625 0.198499 2.52927 0.311927 2.66824 0.453712C2.80721 0.595496 2.91838 0.765638 3.02956 0.964137C3.14073 1.16264 3.16853 1.38949 3.16853 1.58799ZM2.69602 5.64304V18.5455H0.472496V5.64304H2.69602Z" transform="translate(125.101 7.65637)" fill="white"/>
<path d="M2.08456 2.07006C2.3625 1.75813 2.64044 1.47456 2.94618 1.21935C3.25191 0.964137 3.58544 0.737281 3.91897 0.56714C4.2525 0.396998 4.64161 0.255213 5.03073 0.141785C5.41985 0.0567141 5.83676 2.16346e-07 6.28147 2.16346e-07C6.97632 2.16346e-07 7.58779 0.113428 8.11588 0.340284C8.64396 0.56714 9.08867 0.907423 9.44999 1.33278C9.81131 1.75813 10.0615 2.26856 10.256 2.89241C10.4506 3.48791 10.534 4.16847 10.534 4.90575V13.1293H8.31043V4.90575C8.31043 3.94162 8.08808 3.17598 7.64337 2.6372C7.19867 2.09842 6.53161 1.81485 5.6422 1.81485C4.97514 1.81485 4.36368 1.98499 3.80779 2.29691C3.22412 2.60884 2.72382 3.06255 2.22353 3.60134V13.1009H0V0.198499H1.33411C1.63985 0.198499 1.83441 0.36864 1.91779 0.680567L2.08456 2.07006Z" transform="translate(131.466 13.1009)" fill="white"/>
<defs>
<linearGradient id="paint0_linear" x2="1" gradientUnits="userSpaceOnUse" gradientTransform="translate(16.7233 12.9107) scale(22.5535 23.0102) rotate(147.583)">
<stop stop-color="#F54782"/>
<stop offset="0.4728" stop-color="#F85A8C"/>
<stop offset="1" stop-color="#FB759A"/>
</linearGradient>
<linearGradient id="paint1_linear" x2="1" gradientUnits="userSpaceOnUse" gradientTransform="translate(6.86909 -8.63886) scale(26.645 27.1846) rotate(46.9021)">
<stop stop-color="#F54782"/>
<stop offset="0.4728" stop-color="#F85A8C"/>
<stop offset="1" stop-color="#FB759A"/>
</linearGradient>
<linearGradient id="paint2_linear" x2="1" gradientUnits="userSpaceOnUse" gradientTransform="translate(8.90348 21.369) scale(23.0544 23.5212) rotate(-135.547)">
<stop stop-color="#F54782"/>
<stop offset="0.4728" stop-color="#F85A8C"/>
<stop offset="1" stop-color="#FB759A"/>
</linearGradient>
</defs>
</svg>
