<svg width="111" height="110" viewBox="0 0 111 110" fill="none" xmlns="http://www.w3.org/2000/svg">
<path d="M100.01 0H9.98955C4.47807 0 -3.50411e-06 4.47808 -3.50411e-06 9.98956V100.01C-3.50411e-06 105.522 4.47807 110 9.98955 110H100.01C105.522 110 110 105.522 110 100.01V9.98956C110 4.47808 105.522 0 100.01 0ZM41.2213 82.5574C43.1733 82.5574 44.666 84.0501 44.666 86.0021C44.666 87.9541 43.1733 89.4468 41.2213 89.4468H24.1127C23.1941 89.4468 22.2756 89.1023 21.7015 88.4134C21.0125 87.8392 20.6681 87.0355 20.6681 86.0021V68.7787C20.6681 66.8267 22.1607 65.334 24.1127 65.334C26.0647 65.334 27.5574 66.8267 27.5574 68.7787L27.4426 77.62L43.8622 61.2004L48.6848 66.023L32.1503 82.5574H41.2213V82.5574ZM43.8622 48.9144L27.3278 32.4948L27.4426 41.3361C27.4426 43.2881 25.9499 44.7808 23.9979 44.7808C22.0459 44.7808 20.5532 43.2881 20.5532 41.3361V24.1127C20.5532 23.0793 21.0125 22.2756 21.5866 21.7015C22.1607 21.0125 23.0793 20.6681 23.9979 20.6681H41.1065C43.0585 20.6681 44.5511 22.1608 44.5511 24.1127C44.5511 26.0647 43.0585 27.5574 41.1065 27.5574H32.0355L48.5699 44.0919L43.8622 48.9144ZM89.3319 86.0021C89.3319 87.0355 88.8727 87.8392 88.2985 88.4134C87.7244 89.1023 86.8058 89.4468 85.8873 89.4468H68.7787C66.8267 89.4468 65.334 87.9541 65.334 86.0021C65.334 84.0501 66.8267 82.5574 68.7787 82.5574H77.8497L61.3152 66.023L66.1378 61.2004L82.5574 77.62L82.4426 68.7787C82.4426 66.8267 83.9353 65.334 85.8873 65.334C87.8392 65.334 89.3319 66.8267 89.3319 68.7787V86.0021ZM89.3319 41.2213C89.3319 43.1733 87.8392 44.666 85.8873 44.666C83.9353 44.666 82.4426 43.1733 82.4426 41.2213L82.5574 32.38L66.1378 48.7996L61.3152 43.977L77.7349 27.5574H68.6639C66.7119 27.5574 65.2192 26.0647 65.2192 24.1127C65.2192 22.1608 66.7119 20.6681 68.6639 20.6681H85.8873C86.8058 20.6681 87.7244 21.0125 88.2985 21.7015C88.9875 22.2756 89.3319 23.0793 89.3319 24.1127V41.2213Z" transform="translate(0.199951)" fill="#F54782"/>
</svg>
