<svg width="50px" height="50px" viewBox="0 0 50 50" version="1.1" xmlns="http://www.w3.org/2000/svg" xmlns:xlink="http://www.w3.org/1999/xlink">
    <g id="Social-Icons" stroke="none" stroke-width="1" fill="none" fill-rule="evenodd">
        <g id="Twitter_Logo_WhiteOnBlue">
            <g id="Dark_Blue" fill-rule="nonzero" fill="#1DA1F2">
                <rect id="Rectangle-path" x="0" y="0" width="50" height="50"></rect>
            </g>
            <g id="Logo_FIXED">
                <path d="M19.2025,37.69875 C30.995,37.69875 37.445,27.92875 37.445,19.45625 C37.445,19.17875 37.445,18.9025 37.42625,18.6275 C38.6810392,17.7198886 39.7641943,16.5960992 40.625,15.30875 C39.4548488,15.8272522 38.2135366,16.1672858 36.9425,16.3175 C38.28093,15.5162276 39.2826544,14.255965 39.76125,12.77125 C38.5026969,13.5180691 37.1258076,14.04439 35.69,14.3275 C33.7026035,12.2142428 30.5446492,11.6970157 27.9869366,13.0658499 C25.429224,14.4346841 24.1078437,17.3491572 24.76375,20.175 C19.6086197,19.9165619 14.8055947,17.4816541 11.55,13.47625 C9.84827845,16.4058059 10.7174849,20.1535744 13.535,22.035 C12.5146765,22.0047594 11.5165992,21.7295165 10.625,21.2325 L10.625,21.31375 C10.6258352,24.3657412 12.7771894,26.994419 15.76875,27.59875 C14.824837,27.8561751 13.8344757,27.8938054 12.87375,27.70875 C13.7136849,30.3205285 16.1207182,32.1097298 18.86375,32.16125 C16.5934188,33.9455399 13.7888244,34.9141597 10.90125,34.91125 C10.3911295,34.9102707 9.88150508,34.8793844 9.375,34.81875 C12.3070449,36.7003457 15.7186418,37.6983962 19.2025,37.69375" id="Shape" fill="#FFFFFF" fill-rule="nonzero"></path>
                <rect id="Rectangle-path" x="0" y="0" width="50" height="50"></rect>
            </g>
        </g>
    </g>
</svg>