<svg width="110" height="110" viewBox="0 0 110 110" fill="none" xmlns="http://www.w3.org/2000/svg">
<path d="M100.009 0H9.98937C4.47799 0 0 4.47808 0 9.98956V100.01C0 105.522 4.47799 110 9.98937 110H100.009C105.52 110 109.998 105.522 109.998 100.01V9.98956C110.113 4.47808 105.52 0 100.009 0Z" fill="#F54782"/>
<path d="M-8.7601e-07 68.3194C-8.7601e-07 73.7161 4.36317 78.0793 9.75973 78.0793H34.2165C39.613 78.0793 43.9762 73.7161 43.9762 68.3194V58.5595H-8.7601e-07V68.3194ZM21.9307 62.2338C24.5716 62.2338 26.868 64.4154 26.868 67.0564C26.868 69.6973 24.6864 71.9937 21.9307 71.9937C19.175 71.9937 17.1082 69.8121 17.1082 67.0564C17.1082 64.3006 19.2898 62.2338 21.9307 62.2338ZM-8.7601e-07 53.737H43.9762V17.1086H-8.7601e-07V53.737ZM34.2165 -4.38013e-07H9.75973C4.36317 -4.38013e-07 -8.7601e-07 4.36326 -8.7601e-07 9.75992V12.1712H43.9762V9.75992C43.9762 4.36326 39.613 -4.38013e-07 34.2165 -4.38013e-07Z" transform="translate(33.0684 15.9603)" fill="white"/>
</svg>
