
<svg width="20px" height="20px" viewBox="0 0 20 20" version="1.1" xmlns="http://www.w3.org/2000/svg" xmlns:xlink="http://www.w3.org/1999/xlink">
    <g id="Social-Icons" stroke="none" stroke-width="1" fill="none" fill-rule="evenodd">
        <g transform="translate(-243.000000, -363.000000)" id="linkedin">
            <g transform="translate(243.000000, 363.000000)">
                <rect id="Rectangle-2" fill="#474747" x="0" y="0" width="20" height="20" rx="4"></rect>
                <path d="M4.41439323,7.89006651 L6.7074318,7.89006651 L6.7074318,15.8815997 L4.41439323,15.8815997 L4.41439323,7.89006651 Z M5.50246251,6.89046575 L5.48586132,6.89046575 C4.65580211,6.89046575 4.11764706,6.27955677 4.11764706,5.5059396 C4.11764706,4.71650358 4.67171158,4.11764706 5.51837198,4.11764706 C6.36434066,4.11764706 6.8845111,4.71499702 6.90111228,5.50367977 C6.90111228,6.27729693 6.36434066,6.89046575 5.50246251,6.89046575 L5.50246251,6.89046575 Z M15.8823529,15.8823529 L13.2821925,15.8823529 L13.2821925,11.7460999 C13.2821925,10.6636385 12.8754634,9.92542541 11.9810746,9.92542541 C11.2969675,9.92542541 10.9165237,10.4233426 10.7394444,10.9046877 C10.6730397,11.0764352 10.6834154,11.3167311 10.6834154,11.5577802 L10.6834154,15.8823529 L8.107465,15.8823529 C8.107465,15.8823529 8.14066737,8.55596484 8.107465,7.89006651 L10.6834154,7.89006651 L10.6834154,9.14427546 C10.8355929,8.59588861 11.658735,7.81323209 12.9723037,7.81323209 C14.6019866,7.81323209 15.8823529,8.96348858 15.8823529,11.4380089 L15.8823529,15.8823529 L15.8823529,15.8823529 Z" id="Shape" fill="#FFFFFF"></path>
            </g>
        </g>
    </g>
</svg>