<svg width="110" height="110" viewBox="0 0 110 110" fill="none" xmlns="http://www.w3.org/2000/svg">
<path d="M100.06 0.456905L10.5086 0C5.02588 0 0.45689 4.45483 0.45689 9.93769L0 99.4912C0 104.974 4.45476 109.543 9.93751 109.543L99.4892 110C104.972 110 109.541 105.545 109.541 100.062L109.998 10.5088C110.112 5.02596 105.657 0.571132 100.06 0.456905Z" fill="#F54782"/>
<path d="M35.9806 32.0976L36.0948 16.1059C36.0948 7.31049 29.013 0.114227 20.2177 8.71478e-07C11.4224 8.71478e-07 4.22628 7.08203 4.11206 15.8775L3.99786 31.8692C1.48493 35.1817 1.39434e-05 39.2939 1.39434e-05 43.8629C1.39434e-05 54.9429 8.90945 63.8525 19.875 63.9668C30.8405 64.081 39.8642 55.0571 39.9785 44.0914C39.9785 39.5223 38.4936 35.4102 35.9806 32.0976ZM21.9311 49.9169C21.9311 51.0592 21.0172 51.8588 19.875 51.8588C18.7327 51.8588 17.9332 50.945 17.9332 49.8027V41.8069C17.9332 40.6646 18.847 39.865 19.9892 39.865C21.1315 39.865 21.9311 40.7788 21.9311 41.9211V49.9169ZM31.9828 28.0997C28.6703 25.5867 24.5582 23.9875 19.9892 23.9875C15.5345 23.9875 11.3082 25.4725 7.9957 27.9855L8.1099 15.9917C8.1099 9.36656 13.5927 3.99792 20.2177 3.99792C26.8427 3.99792 32.2112 9.48079 32.097 15.9917L31.9828 28.0997Z" transform="translate(35.0668 23.0737)" fill="white"/>
</svg>
