<svg id="Layer_1" data-name="Layer 1" xmlns="http://www.w3.org/2000/svg" viewBox="0 0 178.17 36.76"><defs><style>.cls-1{fill:#c91379;}.cls-2{fill:#ec148e;}.cls-3{fill:#fff;}</style></defs><title>logo2</title><path class="cls-1" d="M31.77,12.6,25.93,6.76a2.22,2.22,0,0,0-.78.5L11.56,20.86a2.09,2.09,0,0,0-.5.78l5.84,5.84Z" transform="translate(-10.92 -6.62)"/><path class="cls-1" d="M33.44,42.74l3.3-3.3-6-6L26.82,37.4l-6,6H31.9A2.17,2.17,0,0,0,33.44,42.74Z" transform="translate(-10.92 -6.62)"/><path class="cls-2" d="M36.74,28.38a2.17,2.17,0,0,0-.64-1.54L32.29,23a1.42,1.42,0,0,0-2,0l-4,4a1.44,1.44,0,0,0,0,2l4.46,4.46,6,6Z" transform="translate(-10.92 -6.62)"/><path class="cls-2" d="M16.9,27.48l-5.84-5.84a2.18,2.18,0,0,0-.14.76V32.55a2.2,2.2,0,0,0,.64,1.55l9.28,9.28,6-6Z" transform="translate(-10.92 -6.62)"/><path class="cls-2" d="M47,15.82,38.39,7.26a2.2,2.2,0,0,0-1.55-.64H26.69a2.18,2.18,0,0,0-.76.14l5.84,5.84,9.84,9.84,5.83-5.84A2.06,2.06,0,0,0,47,15.82Z" transform="translate(-10.92 -6.62)"/><path class="cls-1" d="M39.34,26.72l4,4a1.42,1.42,0,0,0,2,0l1.79-1.79a1.61,1.61,0,0,0,.47-1.14V17.36a2.19,2.19,0,0,0-.15-.76l-5.83,5.84L39.34,24.7A1.44,1.44,0,0,0,39.34,26.72Z" transform="translate(-10.92 -6.62)"/><path class="cls-3" d="M79.93,24.58V36.41a10.3,10.3,0,0,1-2,1,18.93,18.93,0,0,1-2.32.7,20.06,20.06,0,0,1-2.44.42,21.65,21.65,0,0,1-2.33.14,13.74,13.74,0,0,1-5.44-1,11.68,11.68,0,0,1-6.55-6.77A13.64,13.64,0,0,1,58,26a13.17,13.17,0,0,1,.93-5,12.23,12.23,0,0,1,2.58-4,11.61,11.61,0,0,1,4-2.66,13,13,0,0,1,5-1,15,15,0,0,1,5.43.83,10.13,10.13,0,0,1,3.53,2.29L77.15,19A8.41,8.41,0,0,0,74,17a10.74,10.74,0,0,0-3.5-.56,8.72,8.72,0,0,0-6.58,2.81,9,9,0,0,0-1.83,3A10.6,10.6,0,0,0,61.45,26a9.78,9.78,0,0,0,.71,3.78,9.22,9.22,0,0,0,2,3,9.06,9.06,0,0,0,3,2,9.35,9.35,0,0,0,3.69.73,15.65,15.65,0,0,0,3.28-.33,9,9,0,0,0,2.63-.93V27.63H71.35V24.58Z" transform="translate(-10.92 -6.62)"/><path class="cls-3" d="M84.07,21.93h3.05v2.48h.07A4.49,4.49,0,0,1,88,23.24a5.46,5.46,0,0,1,1.13-.9,6.13,6.13,0,0,1,1.38-.6A5.43,5.43,0,0,1,92,21.52a4.17,4.17,0,0,1,1.36.21L93.23,25a6.74,6.74,0,0,0-.75-.17,3.71,3.71,0,0,0-.74-.07A4.51,4.51,0,0,0,88.31,26a5.54,5.54,0,0,0-1.19,3.91V38H84.07Z" transform="translate(-10.92 -6.62)"/><path class="cls-3" d="M94.21,30a8.19,8.19,0,0,1,.66-3.29A8.71,8.71,0,0,1,96.69,24a8.64,8.64,0,0,1,12.14,0,8.54,8.54,0,0,1,1.82,2.68,8.19,8.19,0,0,1,.66,3.29,8.33,8.33,0,0,1-2.48,6,8.7,8.7,0,0,1-2.71,1.79,8.76,8.76,0,0,1-6.72,0A8.7,8.7,0,0,1,96.69,36a8.48,8.48,0,0,1-1.82-2.68A8.32,8.32,0,0,1,94.21,30Zm3.26,0a6.62,6.62,0,0,0,.37,2.26,5.15,5.15,0,0,0,1,1.76,4.84,4.84,0,0,0,1.67,1.15,5.87,5.87,0,0,0,4.41,0A4.8,4.8,0,0,0,106.63,34a5.15,5.15,0,0,0,1.05-1.76,7.09,7.09,0,0,0,0-4.52A5.15,5.15,0,0,0,106.63,26,4.8,4.8,0,0,0,105,24.8a5.87,5.87,0,0,0-4.41,0A4.84,4.84,0,0,0,98.89,26a5.15,5.15,0,0,0-1,1.76A6.62,6.62,0,0,0,97.47,30Z" transform="translate(-10.92 -6.62)"/><path class="cls-3" d="M113.34,30a8.19,8.19,0,0,1,.66-3.29A8.71,8.71,0,0,1,115.82,24,8.64,8.64,0,0,1,128,24a8.54,8.54,0,0,1,1.82,2.68,8.19,8.19,0,0,1,.66,3.29A8.33,8.33,0,0,1,128,36a8.7,8.7,0,0,1-2.71,1.79,8.76,8.76,0,0,1-6.72,0A8.7,8.7,0,0,1,115.82,36,8.48,8.48,0,0,1,114,33.28,8.32,8.32,0,0,1,113.34,30Zm3.26,0a6.62,6.62,0,0,0,.37,2.26A5.15,5.15,0,0,0,118,34a4.84,4.84,0,0,0,1.67,1.15,5.87,5.87,0,0,0,4.41,0A4.8,4.8,0,0,0,125.76,34a5.15,5.15,0,0,0,1-1.76,7.09,7.09,0,0,0,0-4.52,5.15,5.15,0,0,0-1-1.76,4.8,4.8,0,0,0-1.66-1.15,5.87,5.87,0,0,0-4.41,0A4.84,4.84,0,0,0,118,26a5.15,5.15,0,0,0-1,1.76A6.62,6.62,0,0,0,116.6,30Z" transform="translate(-10.92 -6.62)"/><path class="cls-3" d="M144.75,26.2A6.36,6.36,0,0,0,143,24.87a4.91,4.91,0,0,0-2.22-.46,4.84,4.84,0,0,0-2.19.46A4.43,4.43,0,0,0,137,26.12a5.69,5.69,0,0,0-.95,1.83,7.38,7.38,0,0,0-.32,2.16,6,6,0,0,0,.37,2.12A5.36,5.36,0,0,0,137.15,34a4.88,4.88,0,0,0,1.63,1.17,5.11,5.11,0,0,0,2.14.43,4.93,4.93,0,0,0,2.2-.46,5.71,5.71,0,0,0,1.7-1.34L147,35.94a6.8,6.8,0,0,1-2.76,1.9,9.81,9.81,0,0,1-3.34.58,9.32,9.32,0,0,1-3.41-.61,7.92,7.92,0,0,1-2.67-1.72,7.62,7.62,0,0,1-1.73-2.64,9.36,9.36,0,0,1-.61-3.41,9.47,9.47,0,0,1,.61-3.43,7.86,7.86,0,0,1,1.72-2.68,7.64,7.64,0,0,1,2.64-1.74,9.06,9.06,0,0,1,3.45-.63,9.17,9.17,0,0,1,3.37.63,7.33,7.33,0,0,1,2.8,1.91Z" transform="translate(-10.92 -6.62)"/><path class="cls-3" d="M147.8,30a8.2,8.2,0,0,1,.67-3.29A8.51,8.51,0,0,1,150.28,24a8.7,8.7,0,0,1,9.43-1.81A8.31,8.31,0,0,1,162.42,24a8.54,8.54,0,0,1,1.82,2.68A8.19,8.19,0,0,1,164.9,30a8.33,8.33,0,0,1-2.48,6,8.59,8.59,0,0,1-2.71,1.79,8.76,8.76,0,0,1-6.72,0A8.7,8.7,0,0,1,150.28,36a8.44,8.44,0,0,1-2.48-6Zm3.26,0a6.62,6.62,0,0,0,.37,2.26A5,5,0,0,0,152.49,34a4.71,4.71,0,0,0,1.66,1.15,5.87,5.87,0,0,0,4.41,0A4.8,4.8,0,0,0,160.22,34a5.15,5.15,0,0,0,1.05-1.76,7.09,7.09,0,0,0,0-4.52A5.15,5.15,0,0,0,160.22,26a4.8,4.8,0,0,0-1.66-1.15,5.87,5.87,0,0,0-4.41,0A4.71,4.71,0,0,0,152.49,26a5,5,0,0,0-1.06,1.76A6.62,6.62,0,0,0,151.06,30Z" transform="translate(-10.92 -6.62)"/><path class="cls-3" d="M167.24,16.16a2.14,2.14,0,0,1,.66-1.57,2.22,2.22,0,0,1,3.16,0,2.14,2.14,0,0,1,.66,1.57,2.24,2.24,0,0,1-4.48,0Zm.71,5.77H171V38H168Z" transform="translate(-10.92 -6.62)"/><path class="cls-3" d="M174.84,21.93h3v2.48H178a4.47,4.47,0,0,1,2-2.09,6.65,6.65,0,0,1,3.29-.8,6.89,6.89,0,0,1,2.22.36,5.17,5.17,0,0,1,1.87,1.1,5.41,5.41,0,0,1,1.27,1.92,7.25,7.25,0,0,1,.47,2.76V38H186v-9.5a5.53,5.53,0,0,0-.3-1.92,3.49,3.49,0,0,0-.82-1.28,3.1,3.1,0,0,0-1.17-.72,4.52,4.52,0,0,0-1.37-.22,4.88,4.88,0,0,0-1.77.31,3.58,3.58,0,0,0-1.42,1,4.6,4.6,0,0,0-1,1.67,7.58,7.58,0,0,0-.34,2.41V38h-3Z" transform="translate(-10.92 -6.62)"/></svg>